<svg width="393" height="285" viewBox="0 0 393 285" fill="none" xmlns="http://www.w3.org/2000/svg">
<g clip-path="url(#clip0_778_1323)">
<path d="M259.796 176.99C259.796 180.006 261.383 182.143 264.468 183.402V170.871L263.91 171.105C261.148 172.511 259.767 174.472 259.796 177.02V176.99Z" fill="#E13D6F"/>
<path d="M279.249 217.365C279.778 217.102 280.307 216.838 280.807 216.516C283.569 214.73 284.95 212.242 284.979 208.992C285.009 205.508 283.069 203.165 279.249 201.877V217.365Z" fill="#E13D6F"/>
<path d="M240.519 2.78092L239.491 2.34174C239.491 2.34174 239.226 2.22462 239.079 2.19534C232.615 -0.176239 226.679 -0.586142 220.361 0.731404C220.214 0.760683 220.067 0.789962 219.95 0.819241L219.303 0.994913C160.297 16.9811 81.8677 38.1204 43.2553 48.2216C42.9614 48.3095 42.6676 48.3973 42.4031 48.5144L39.7878 49.5392C25.389 53.3747 13.8993 55.4828 7.37573 55.4828C3.34993 55.4828 0.117541 58.7327 0.117541 62.7147V67.9848C0.0293854 68.424 0 68.8925 0 69.3609L0.117541 135.941C-0.235083 137.873 0.235083 139.864 1.4105 141.475C2.76223 143.349 4.96613 144.461 7.28757 144.461C27.3578 144.461 40.9632 155.206 56.7432 167.621C60.1519 170.314 63.6193 173.037 67.1456 175.643C81.5738 186.359 99.8515 197.28 126.034 197.28C137.142 197.28 146.133 197.163 153.245 196.958H184.511C185.627 245.619 223.505 284.999 269.64 284.999C315.775 284.999 354.858 244.536 354.858 194.762C354.858 185.129 353.389 175.76 350.568 166.742C350.832 166.83 351.096 166.977 351.39 167.064C352.595 167.445 353.888 167.767 355.387 168.001C359.207 168.587 362.057 168.44 365.143 167.826C381.07 166.127 393 152.396 393 135.648C393 127.187 389.826 119.193 384.096 113.074C383.979 112.928 383.861 112.811 383.714 112.694C381.598 110.498 379.248 108.682 376.75 107.248L242.635 3.9228C241.989 3.42506 241.283 3.04443 240.519 2.8102V2.78092ZM269.64 275.337C229.882 275.337 197 242.106 194.325 200.296H212.985C223.74 200.296 232.908 193.122 236.435 183.109C237.199 186.183 238.492 189.023 240.343 191.6C244.574 197.631 251.039 201.76 259.62 203.868V208.962C258.679 208.113 257.768 207.206 256.858 206.152C255.183 203.956 252.714 202.726 249.952 202.726C248.453 202.726 246.867 203.341 245.779 203.839C245.603 203.926 245.397 204.014 245.25 204.131L238.022 208.611C235.347 210.28 233.878 212.856 233.937 215.814C233.966 217.629 234.583 219.327 235.729 220.791C237.845 223.895 240.696 226.881 244.104 229.633C248.718 233.41 253.919 236.104 259.59 237.626V240.73C259.59 245.649 263.499 249.66 268.288 249.66H275.37C280.16 249.66 284.068 245.649 284.068 240.73V237.685C288.799 236.484 293.09 234.581 296.792 232.005C304.697 226.442 308.781 218.712 308.958 208.992C309.075 202.785 307.4 197.426 303.933 192.976C299.378 187.208 292.708 183.314 284.039 181.352V180.123C285.068 180.503 286.155 180.679 287.271 180.679C289.358 180.796 291.297 179.742 292.061 179.332C292.179 179.274 292.326 179.186 292.443 179.098L300.377 173.798C302.758 172.188 304.109 169.817 304.168 167.064C304.168 164.927 303.404 162.965 301.876 161.384C297.116 155.675 291.121 151.752 284.01 149.702V145.544C284.01 140.626 280.101 136.614 275.312 136.614H268.23C263.44 136.614 259.532 140.626 259.532 145.544V149.351C256.946 149.995 254.566 150.844 252.332 151.927C243.517 156.202 239.109 161.941 237.111 167.533C235.259 160.184 230.411 153.83 223.681 150.463C220.214 148.736 216.6 147.828 212.926 147.828H208.284C222.418 126.894 245.25 114.187 269.581 114.187C270.698 114.187 271.785 114.245 272.873 114.333L331.114 154.445L337.256 159.159C342.457 170.373 345.102 182.348 345.102 194.733C345.102 239.178 311.22 275.308 269.581 275.308L269.64 275.337ZM298.35 164.634C299.055 165.337 299.408 166.127 299.378 167.035C299.378 168.177 298.82 169.085 297.733 169.817L289.799 175.087C289.799 175.087 288.388 175.848 287.389 175.848C286.125 175.848 285.038 175.409 284.098 174.56C282.54 173.125 280.954 172.012 279.279 171.193V185.334C288.741 186.74 295.734 190.282 300.201 195.963C302.963 199.505 304.286 203.839 304.197 208.904C304.05 217.043 300.671 223.426 294.059 228.052C289.887 230.98 284.95 232.854 279.279 233.761V240.73C279.279 243.014 277.545 244.829 275.429 244.829H268.347C266.202 244.829 264.498 243.014 264.498 240.73V233.761C258.092 232.678 252.332 230.072 247.249 225.915C244.104 223.368 241.577 220.703 239.696 217.922C239.138 217.278 238.874 216.546 238.844 215.726C238.844 214.496 239.432 213.471 240.637 212.71L247.866 208.23H247.895C247.895 208.23 249.306 207.557 250.011 207.557C251.304 207.557 252.362 208.113 253.126 209.167C256.711 213.296 260.501 216.077 264.498 217.57V199.915C255.212 198.393 248.512 194.704 244.369 188.819C241.9 185.364 240.637 181.382 240.549 176.873C240.402 167.738 245.074 160.828 254.565 156.231C257.504 154.797 260.825 153.801 264.498 153.274V145.515C264.498 143.261 266.231 141.416 268.347 141.416H275.429C277.545 141.416 279.279 143.261 279.279 145.515V153.479C287.066 154.914 293.442 158.632 298.379 164.605L298.35 164.634ZM195.53 150.375C195.383 150.639 195.325 150.902 195.236 151.166H157.329C150.336 149.673 145.34 143.056 145.34 135.18C145.34 129.529 148.073 124.317 152.539 121.36C154.802 120.716 159.856 119.311 166.498 117.437L171.669 115.973C178.105 114.333 184.775 112.459 191.358 110.439L192.65 110.059C220.978 102.095 239.021 97.088 243.869 95.829C245.368 95.7704 246.749 95.829 247.895 96.0047L261.03 105.052C233.849 108.009 209.283 124.786 195.56 150.375H195.53ZM368.287 118.989C368.581 119.223 368.904 119.428 369.257 119.603C370.667 120.365 371.989 121.389 373.224 122.648C373.282 122.707 373.341 122.795 373.4 122.853C376.662 126.279 378.454 130.817 378.454 135.619C378.454 144.988 371.96 152.63 363.35 153.42C363.056 153.42 362.733 153.479 362.439 153.567C360.999 153.889 359.795 154.006 357.708 153.684C357.062 153.567 356.415 153.45 355.857 153.274C355.152 153.04 354.446 152.718 353.565 152.249C353.095 151.986 352.624 151.752 352.213 151.429C352.096 151.342 352.007 151.283 351.89 151.225L337.491 140.157C337.491 140.157 337.285 140.011 337.197 139.923L254.977 83.2977C254.272 82.7999 253.508 82.4486 252.685 82.2436C249.658 81.4531 246.249 81.1896 242.371 81.4238C241.93 81.4531 241.489 81.5117 241.048 81.6288C236.317 82.7999 209.988 90.1782 188.742 96.1511L187.273 96.561C180.749 98.5519 174.314 100.367 167.937 102.007L162.56 103.529C154.626 105.755 148.984 107.365 147.603 107.745C147.015 107.921 146.457 108.155 145.928 108.477C136.642 113.923 130.853 124.171 130.853 135.238C130.853 150.346 141.197 163.112 155.449 165.571C155.86 165.659 156.271 165.688 156.712 165.688H208.901C213.015 165.688 216.365 169.465 216.365 174.091C216.365 178.717 213.015 182.494 208.901 182.494H153.068C145.869 182.729 137.053 182.816 126.093 182.816C104.201 182.816 89.0083 173.798 75.873 164.049C72.4349 161.501 69.1144 158.866 65.7938 156.29C51.0718 144.666 35.8795 132.691 14.7221 130.407V78.2031L14.6339 70.4735C14.6927 70.1515 14.7221 69.8294 14.7221 69.5073C22.2741 68.6582 32.0888 66.6087 44.0193 63.4466C44.2838 63.3881 44.5776 63.271 44.8127 63.1831L47.428 62.1584C86.2167 51.9986 164.352 30.9179 223.182 15.0195L223.593 14.9024C227.12 14.1997 230.176 14.4046 233.996 15.7807L234.583 16.0442L362.645 114.685L368.316 119.047L368.287 118.989Z" fill="#E13D6F"/>
</g>
<defs>
<clipPath id="clip0_778_1323">
<rect width="393" height="285" fill="white"/>
</clipPath>
</defs>
</svg>
