<svg width="259" height="243" viewBox="0 0 259 243" fill="none" xmlns="http://www.w3.org/2000/svg">
<path d="M43.1235 221.659C43.1235 225.574 39.9359 228.764 36.0226 228.764H28.4034C24.4902 228.764 21.3026 225.574 21.3026 221.659V205.867H13.1651C12.4913 205.867 11.8434 205.763 11.1955 205.659V221.633C11.1955 231.123 18.9184 238.851 28.4034 238.851H36.0226C45.5077 238.851 53.2305 231.123 53.2305 221.633V205.841H43.1235V221.633V221.659Z" fill="white"/>
<path d="M241.559 205.867V225.756C241.559 229.671 238.371 232.861 234.458 232.861H226.839C222.926 232.861 219.738 229.671 219.738 225.756V205.867H209.631V225.756C209.631 235.247 217.354 242.974 226.839 242.974H234.458C243.943 242.974 251.666 235.247 251.666 225.756V204.44C249.904 205.322 247.96 205.867 245.861 205.867H241.585H241.559Z" fill="white"/>
<path d="M21.3026 173.194V118.194C21.3026 114.174 24.3088 110.933 27.9888 110.933H234.873C238.553 110.933 241.559 114.2 241.559 118.194V173.194H245.835C247.934 173.194 249.878 173.738 251.64 174.62V118.22C251.64 108.625 244.099 100.846 234.847 100.846H230.622V75.3297C232.825 76.3929 235.391 76.9893 238.164 76.9893C246.535 76.9893 253.065 71.5957 253.065 64.6721V43.4864C253.065 36.5887 246.509 31.1691 238.164 31.1691C235.391 31.1691 232.825 31.7656 230.622 32.8287V20.304C230.622 9.1018 222.9 0 213.415 0H49.4209C39.9359 0 32.213 9.1018 32.213 20.304V32.4657C30.088 31.6359 27.6519 31.1432 25.0603 31.1432C16.2231 31.1432 9.3296 36.5628 9.3296 43.4605V64.6461C9.3296 71.5697 16.249 76.9634 25.0603 76.9634C27.6519 76.9634 30.062 76.4966 32.213 75.6668V100.846H27.9629C18.711 100.846 11.1696 108.651 11.1696 118.22V173.401C11.8175 173.297 12.4654 173.194 13.1392 173.194H21.2767H21.3026ZM233.37 43.4605C233.37 42.7863 235.184 41.2563 238.19 41.2563C241.196 41.2563 242.984 42.7863 242.984 43.4605V64.6461C242.984 65.3204 241.17 66.8503 238.19 66.8503C235.21 66.8503 233.37 65.3204 233.37 64.6461V43.4605ZM42.3201 20.304C42.3201 14.7807 45.5854 10.0872 49.4209 10.0872H213.44C217.302 10.0872 220.541 14.7548 220.541 20.304V100.82H42.3201V20.304ZM30.684 64.6461C30.6063 65.1648 28.6885 66.8503 25.0603 66.8503C21.4322 66.8503 19.5144 65.1648 19.4367 64.6461V43.4605C19.5144 42.9418 21.4322 41.2563 25.0603 41.2563C28.6885 41.2563 30.6063 42.9418 30.684 43.4605V64.6461Z" fill="white"/>
<path d="M245.861 173.193H13.1651C12.4913 173.193 11.8434 173.297 11.1955 173.401C4.87212 174.36 0 179.78 0 186.366V192.719C0 199.306 4.87212 204.726 11.1955 205.685C11.8434 205.789 12.4913 205.892 13.1651 205.892H245.861C247.96 205.892 249.904 205.348 251.666 204.466C255.994 202.314 259 197.88 259 192.719V186.366C259 181.206 255.994 176.772 251.666 174.62C249.904 173.738 247.96 173.193 245.861 173.193ZM251.64 192.719C251.64 195.909 249.048 198.502 245.861 198.502H13.1651C9.97749 198.502 7.38593 195.909 7.38593 192.719V186.366C7.38593 183.177 9.97749 180.584 13.1651 180.584H245.861C249.048 180.584 251.64 183.177 251.64 186.366V192.719Z" fill="white"/>
<path d="M201.493 24.9971H66.4215C60.0204 24.9971 54.7855 30.2092 54.7855 36.6142V76.1331C54.7855 82.5381 59.9945 87.7502 66.4215 87.7502H201.467C207.869 87.7502 213.078 82.5381 213.078 76.1331V36.6142C213.078 30.2092 207.869 24.9971 201.467 24.9971H201.493ZM208.05 76.1331C208.05 79.7635 205.096 82.6937 201.493 82.6937H66.4215C62.7934 82.6937 59.839 79.7375 59.839 76.1331V36.6142C59.839 32.9838 62.7934 30.0536 66.4215 30.0536H201.467C205.096 30.0536 208.024 33.0098 208.024 36.6142V76.1331H208.05Z" fill="white"/>
<path d="M66.603 126.933C58.6987 126.933 52.2976 133.364 52.2976 141.247C52.2976 149.13 58.7246 155.561 66.603 155.561C74.4813 155.561 80.9083 149.13 80.9083 141.247C80.9083 133.364 74.4813 126.933 66.603 126.933ZM66.603 150.53C61.4976 150.53 57.3511 146.381 57.3511 141.272C57.3511 136.164 61.4976 132.015 66.603 132.015C71.7083 132.015 75.8548 136.164 75.8548 141.272C75.8548 146.381 71.7083 150.53 66.603 150.53Z" fill="white"/>
<path d="M201.312 126.933C193.408 126.933 187.007 133.364 187.007 141.247C187.007 149.13 193.434 155.561 201.312 155.561C209.19 155.561 215.617 149.13 215.617 141.247C215.617 133.364 209.19 126.933 201.312 126.933ZM201.312 150.53C196.207 150.53 192.034 146.381 192.034 141.272C192.034 136.164 196.181 132.015 201.312 132.015C206.443 132.015 210.564 136.164 210.564 141.272C210.564 146.381 206.417 150.53 201.312 150.53Z" fill="white"/>
</svg>
