<svg width="359" height="210" viewBox="0 0 359 210" fill="none" xmlns="http://www.w3.org/2000/svg">
<g clip-path="url(#clip0_778_1294)">
<path d="M350.608 99.1964C355.521 90.4145 358.484 80.4491 358.943 69.8345C358.981 68.88 359.019 67.9445 359.019 67.0473C359 30.0109 328.298 0 290.408 0H68.5922C30.7021 0 0 30.0109 0 67.0473C0 104.084 30.7212 134.075 68.5922 134.075H221.013V198.889C221.013 212.062 234.796 213.169 243.819 204.139C252.46 195.51 316.732 136.099 338.029 115.252C338.755 114.565 339.443 113.877 340.131 113.171C340.284 113.018 340.437 112.865 340.59 112.713C340.724 112.579 340.839 112.445 340.953 112.331C341.049 112.216 341.183 112.102 341.278 111.987C344.987 108.15 348.065 103.797 350.569 99.2155L350.608 99.1964ZM150.413 67.6582C150.413 51.6218 163.432 38.6209 179.49 38.6209C195.549 38.6209 208.568 51.6218 208.568 67.6582C208.568 83.6945 195.549 96.6955 179.49 96.6955C163.432 96.6955 150.413 83.6945 150.413 67.6582ZM236.574 67.6582C236.574 51.6218 249.593 38.6209 265.651 38.6209C281.71 38.6209 294.728 51.6218 294.728 67.6582C294.728 83.6945 281.71 96.6955 265.651 96.6955C249.593 96.6955 236.574 83.6945 236.574 67.6582ZM64.2526 67.6582C64.2526 51.6218 77.2713 38.6209 93.3297 38.6209C109.388 38.6209 122.407 51.6218 122.407 67.6582C122.407 83.6945 109.388 96.6955 93.3297 96.6955C77.2713 96.6955 64.2526 83.6945 64.2526 67.6582Z" fill="white"/>
</g>
<defs>
<clipPath id="clip0_778_1294">
<rect width="359" height="210" fill="white"/>
</clipPath>
</defs>
</svg>
