<svg width="406" height="305" viewBox="0 0 406 305" fill="none" xmlns="http://www.w3.org/2000/svg">
<path d="M192.312 55.4173L159.636 4.50522C157.842 1.70127 154.757 0 151.42 0H9.75886C4.37575 0 0 4.3792 0 9.76655V295.233C0 300.621 4.37575 305 9.75886 305H350.752C356.167 305 360.511 300.621 360.511 295.233V173.372C386.986 163.921 406 138.685 406 109.007C406 71.2958 375.338 40.6415 337.688 40.6415C321.696 40.6415 307.026 46.1863 295.379 55.4173H192.312ZM390.386 109.007C390.386 138.086 366.744 161.747 337.688 161.747C308.632 161.747 284.99 138.086 284.99 109.007C284.99 79.9282 308.632 56.2679 337.688 56.2679C366.744 56.2679 390.386 79.9282 390.386 109.007ZM19.5177 285.467V19.5646H146.068L178.745 70.4767C180.539 73.2807 183.624 74.9504 186.961 74.9504H278.474C272.681 85.0005 269.313 96.5944 269.313 109.007C269.313 146.719 299.943 177.373 337.625 177.373C338.758 177.373 339.829 177.247 340.93 177.216V285.467H19.5177Z" fill="#E13D6F"/>
<path d="M324.403 124.192L316.03 114.426C313.921 111.968 310.237 111.685 307.782 113.796C305.326 115.906 305.043 119.593 307.152 122.05L319.398 136.353C320.405 137.55 321.885 138.275 323.459 138.401C323.585 138.401 323.742 138.401 323.868 138.401C325.316 138.401 326.702 137.865 327.772 136.92L373.67 96.0898C376.094 93.9475 376.314 90.2299 374.174 87.804C372.033 85.3781 368.318 85.1576 365.894 87.2999L324.435 124.161L324.403 124.192Z" fill="#E13D6F"/>
</svg>
