<svg width="103" height="75" viewBox="0 0 103 75" fill="none" xmlns="http://www.w3.org/2000/svg">
<g clip-path="url(#clip0_778_1738)">
<path d="M88.06 35.13H60.2V0H20.16V71.41H0V74.08H102.94V71.41H88.06V35.13ZM57.53 70.26H22.82V2.67H57.53V70.26ZM85.39 70.26H60.61V37.8H85.39V70.26Z" fill="#E13D6F"/>
<path d="M38.3102 10.1016H29.7402V17.4516H38.3102V10.1016ZM36.9802 16.1216H31.0702V11.4316H36.9802V16.1216Z" fill="#E13D6F"/>
<path d="M50.6198 10.1016H42.0498V17.4516H50.6198V10.1016ZM49.2898 16.1216H43.3798V11.4316H49.2898V16.1216Z" fill="#E13D6F"/>
<path d="M50.6198 19.6602H42.0498V27.0102H50.6198V19.6602ZM49.2898 25.6802H43.3798V20.9902H49.2898V25.6802Z" fill="#E13D6F"/>
<path d="M50.6198 36.5781H42.0498V43.9281H50.6198V36.5781ZM49.2898 42.5981H43.3798V37.9081H49.2898V42.5981Z" fill="#E13D6F"/>
<path d="M50.6198 53.3711H42.0498V60.7211H50.6198V53.3711ZM49.2898 59.3911H43.3798V54.7011H49.2898V59.3911Z" fill="#E13D6F"/>
<path d="M38.3102 53.3711H29.7402V60.7211H38.3102V53.3711ZM36.9802 59.3911H31.0702V54.7011H36.9802V59.3911Z" fill="#E13D6F"/>
<path d="M72.4899 40.6914H63.9199V48.0414H72.4899V40.6914ZM71.1599 46.7114H65.2499V42.0214H71.1599V46.7114Z" fill="#E13D6F"/>
<path d="M83.2497 52.5703H74.6797V59.9203H83.2497V52.5703ZM81.9197 58.5903H76.0097V53.9003H81.9197V58.5903Z" fill="#E13D6F"/>
</g>
<defs>
<clipPath id="clip0_778_1738">
<rect width="102.94" height="74.08" fill="white"/>
</clipPath>
</defs>
</svg>
