<svg width="65" height="74" viewBox="0 0 65 74" fill="none" xmlns="http://www.w3.org/2000/svg">
<g clip-path="url(#clip0_778_1748)">
<path d="M31.2702 0.45L1.80023 29.91C1.48023 30.23 1.33023 30.65 1.33023 31.06C0.500234 32.09 -0.00976562 33.4 -0.00976562 34.83V66.92C-0.00976562 70.23 2.68023 72.92 5.99023 72.92H6.81023L6.96023 73.07L7.11023 72.92H57.6802L57.8302 73.07L57.9802 72.92H58.8002C62.1102 72.92 64.8002 70.23 64.8002 66.92V34.83C64.8002 33.4 64.3002 32.09 63.4602 31.06C63.4602 30.64 63.3102 30.23 63.0002 29.91L33.5202 0.45C32.9202 -0.15 31.8602 -0.15 31.2602 0.45H31.2702ZM62.1202 34.83V66.92C62.1202 68.53 60.9702 69.88 59.4602 70.19L42.2102 52.95L61.7702 33.39C61.9802 33.83 62.1102 34.32 62.1102 34.84L62.1202 34.83ZM2.67023 66.92V34.83C2.67023 34.31 2.80023 33.82 3.02023 33.38L22.5802 52.94L5.33023 70.19C3.81023 69.88 2.67023 68.53 2.67023 66.92ZM14.6102 30.16H50.7102V40.83L32.3902 59.15L14.6102 41.37V30.16ZM59.6002 31.04L52.6302 38.01V29.2C52.6302 28.67 52.2002 28.24 51.6702 28.24H13.6502C13.1202 28.24 12.6902 28.67 12.6902 29.2V38.54L5.18023 31.03L32.3902 3.84L59.5902 31.05L59.6002 31.04ZM24.8302 55.2L31.2602 61.63C31.5602 61.93 31.9702 62.1 32.3902 62.1C32.8102 62.1 33.2202 61.93 33.5202 61.63L39.9502 55.2L55.0002 70.26H9.78023L24.8302 55.2Z" fill="#E13D6F"/>
</g>
<defs>
<clipPath id="clip0_778_1748">
<rect width="64.79" height="73.07" fill="white"/>
</clipPath>
</defs>
</svg>
