<svg width="53" height="82" viewBox="0 0 53 82" fill="none" xmlns="http://www.w3.org/2000/svg">
<g clip-path="url(#clip0_778_1750)">
<path d="M0 8V73.54C0 77.95 3.59 81.54 8 81.54H44.06C48.47 81.54 52.06 77.95 52.06 73.54V8C52.06 3.59 48.47 0 44.06 0H8C3.59 0 0 3.59 0 8ZM8 3.19H44.06C46.71 3.19 48.87 5.35 48.87 7.99V73.54C48.87 76.19 46.71 78.34 44.06 78.34H8C5.35 78.34 3.2 76.19 3.2 73.54V8C3.2 5.35 5.35 3.2 8 3.2V3.19Z" fill="#E13D6F"/>
<path d="M13.3201 63.6684H38.7301C42.0101 63.6684 44.6801 60.9984 44.6801 57.7184V12.8484C44.6801 9.56844 42.0101 6.89844 38.7301 6.89844H13.3201C10.0401 6.89844 7.37012 9.56844 7.37012 12.8484V57.7184C7.37012 60.9984 10.0401 63.6684 13.3201 63.6684ZM9.93012 12.8484C9.93012 10.9784 11.4501 9.44844 13.3201 9.44844H38.7301C40.6001 9.44844 42.1301 10.9684 42.1301 12.8484V57.7184C42.1301 59.5884 40.6101 61.1084 38.7301 61.1084H13.3201C11.4501 61.1084 9.93012 59.5884 9.93012 57.7184V12.8484Z" fill="#E13D6F"/>
<path d="M26.0303 65.6992C23.0203 65.6992 20.5703 68.1492 20.5703 71.1592C20.5703 74.1692 23.0203 76.6192 26.0303 76.6192C29.0403 76.6192 31.4903 74.1692 31.4903 71.1592C31.4903 68.1492 29.0403 65.6992 26.0303 65.6992ZM26.0303 74.6992C24.0803 74.6992 22.4903 73.1092 22.4903 71.1592C22.4903 69.2092 24.0803 67.6192 26.0303 67.6192C27.9803 67.6192 29.5703 69.2092 29.5703 71.1592C29.5703 73.1092 27.9803 74.6992 26.0303 74.6992Z" fill="#E13D6F"/>
</g>
<defs>
<clipPath id="clip0_778_1750">
<rect width="52.06" height="81.53" fill="white"/>
</clipPath>
</defs>
</svg>
