<svg width="104" height="105" viewBox="0 0 104 105" fill="none" xmlns="http://www.w3.org/2000/svg">
<path d="M103.578 52.5564C103.578 23.9536 80.3915 0.767578 51.7888 0.767578C23.186 0.767578 0 23.9536 0 52.5564C0 78.4047 18.9355 99.8338 43.6944 103.716V67.5253H30.5439V52.5564H43.6944V41.1475C43.6944 28.1658 51.4282 20.9997 63.259 20.9997C68.929 20.9997 74.8521 22.0125 74.8521 22.0125V34.7564H68.3228C61.8934 34.7564 59.8832 38.746 59.8832 42.8431V52.5564H74.2459L71.9519 67.5253H59.8832V103.716C84.6421 99.8338 103.578 78.4047 103.578 52.5564Z" fill="#4676ED"/>
<path d="M71.9441 67.5253L74.2382 52.5564H59.8754V42.8431C59.8754 38.746 61.8779 34.7564 68.3151 34.7564H74.8443V22.0125C74.8443 22.0125 68.9212 20.9998 63.2513 20.9998C51.4204 20.9998 43.6867 28.1658 43.6867 41.1475V52.5564H30.5361V67.5253H43.6867V103.716C46.326 104.13 49.0266 104.345 51.781 104.345C54.5354 104.345 57.2361 104.13 59.8754 103.716V67.5253H71.9441Z" fill="white"/>
</svg>
