<svg width="129" height="75" viewBox="0 0 129 75" fill="none" xmlns="http://www.w3.org/2000/svg">
<g clip-path="url(#clip0_740_422)">
<path d="M17.56 40.249C15.22 40.749 13.46 42.829 13.46 45.309C13.46 46.449 13.83 47.549 14.51 48.439L12.35 61.249C12.26 61.799 12.41 62.359 12.77 62.779C13.13 63.199 13.65 63.449 14.21 63.449H23.07C23.62 63.449 24.14 63.209 24.49 62.799C24.85 62.389 25.01 61.839 24.94 61.299L23.1 47.949C23.57 47.149 23.83 46.239 23.83 45.309C23.83 43.439 22.83 41.799 21.34 40.889V33.959L33 39.019V67.979C33 71.549 35.9 74.449 39.47 74.449H92.71C96.28 74.449 99.19 71.549 99.19 67.979V37.249L126.98 25.189C127.69 24.879 128.15 24.159 128.11 23.379C128.08 22.599 127.57 21.919 126.83 21.669L63.63 0.0990408C63.21 -0.0409592 62.76 -0.0309592 62.35 0.119041C40.71 8.31904 5.17001 21.379 1.87001 21.579C0.980006 21.579 0.220006 22.209 0.0400064 23.079C-0.139994 23.949 0.320006 24.839 1.14001 25.189L17.57 32.319V40.239L17.56 40.249ZM16.45 59.679L18.4 48.159C18.51 47.499 18.26 46.829 17.75 46.399C17.43 46.129 17.24 45.739 17.24 45.319C17.24 44.549 17.87 43.919 18.64 43.919C19.41 43.919 20.05 44.549 20.05 45.319C20.05 45.749 19.86 46.059 19.7 46.239C19.34 46.649 19.18 47.199 19.25 47.739L20.9 59.679H16.44H16.45ZM95.41 67.989C95.41 69.479 94.2 70.689 92.71 70.689H39.48C37.99 70.689 36.78 69.479 36.78 67.989V40.659L63.31 52.169C63.55 52.269 63.8 52.329 64.06 52.329C64.32 52.329 64.57 52.279 64.81 52.169L95.42 38.889V67.989H95.41ZM7.62001 23.889C21.28 19.629 54.1 7.27904 63.05 3.88904L121 23.669L64.06 48.369L26.45 32.069L58.2 27.879C59.59 28.729 61.66 29.259 64.05 29.259C68.43 29.259 71.73 27.519 71.73 25.209C71.73 22.899 68.43 21.159 64.05 21.159C60.27 21.159 57.3 22.459 56.56 24.299L19.72 29.159L7.61001 23.909L7.62001 23.889ZM58.27 25.199C58.27 24.319 60.53 23.039 64.06 23.039C67.59 23.039 69.85 24.319 69.85 25.199C69.85 26.079 67.59 27.369 64.06 27.369C60.53 27.369 58.27 26.089 58.27 25.199Z" fill="#E13D6F"/>
</g>
<defs>
<clipPath id="clip0_740_422">
<rect width="128.11" height="74.46" fill="white"/>
</clipPath>
</defs>
</svg>
