<svg width="100" height="88" viewBox="0 0 100 88" fill="none" xmlns="http://www.w3.org/2000/svg">
<path d="M98.3538 41.4419H88.315C87.4112 41.4419 86.6796 42.1697 86.6796 43.0687V49.2872H13.3097V29.3261C13.3097 28.427 12.578 27.6992 11.6742 27.6992H1.63546C0.731655 27.6992 0 28.427 0 29.3261V86.3623C0 87.2614 0.731655 87.9892 1.63546 87.9892H11.6742C12.578 87.9892 13.3097 87.2614 13.3097 86.3623V68.5632H86.6903V86.3623C86.6903 87.2614 87.422 87.9892 88.3258 87.9892H98.3645C99.2683 87.9892 100 87.2614 100 86.3623V43.0687C100 42.1697 99.2683 41.4419 98.3645 41.4419H98.3538ZM89.9613 84.7355V44.7063H96.7183V84.7355H89.9613ZM3.28169 84.7355V30.9636H10.0387V84.7355H3.28169ZM13.3097 52.5516H86.6903V65.2988H13.3097V52.5516Z" fill="#E13D6F"/>
<path d="M19.8623 35.6738C17.1509 35.6738 14.9451 37.8679 14.9451 40.5651V42.7806C14.9451 45.4778 17.1509 47.6719 19.8623 47.6719H31.9453C34.6568 47.6719 36.8625 45.4778 36.8625 42.7806V40.5651C36.8625 37.8679 34.6568 35.6738 31.9453 35.6738H19.8623ZM33.5808 42.7806C33.5808 43.6797 32.8492 44.4075 31.9453 44.4075H19.8623C18.9585 44.4075 18.2268 43.6797 18.2268 42.7806V40.5651C18.2268 39.666 18.9585 38.9382 19.8623 38.9382H31.9453C32.8492 38.9382 33.5808 39.666 33.5808 40.5651V42.7806Z" fill="#E13D6F"/>
<path d="M60.9318 30.846H70.5401C71.218 30.846 71.7667 30.3002 71.7667 29.6259V21.4274H80.0086C80.6864 21.4274 81.2352 20.8815 81.2352 20.2072V10.6388C81.2352 9.96448 80.6864 9.41863 80.0086 9.41863H71.7667V1.22014C71.7667 0.545853 71.218 0 70.5401 0H60.9318C60.2539 0 59.7052 0.545853 59.7052 1.22014V9.41863H51.4633C50.7854 9.41863 50.2367 9.96448 50.2367 10.6388V20.1965C50.2367 20.8708 50.7854 21.4167 51.4633 21.4167H59.7052V29.6152C59.7052 30.2895 60.2539 30.8353 60.9318 30.8353V30.846ZM52.6899 11.8696H60.9318C61.6096 11.8696 62.1584 11.3238 62.1584 10.6495V2.44028H69.3135V10.6388C69.3135 11.3131 69.8623 11.8589 70.5401 11.8589H78.782V18.9764H70.5401C69.8623 18.9764 69.3135 19.5223 69.3135 20.1965V28.395H62.1584V20.1965C62.1584 19.5223 61.6096 18.9764 60.9318 18.9764H52.6899V11.8589V11.8696Z" fill="#E13D6F"/>
</svg>
