<svg width="87" height="98" viewBox="0 0 87 98" fill="none" xmlns="http://www.w3.org/2000/svg">
<g clip-path="url(#clip0_772_413)">
<path d="M55.2533 27.3791C56.9945 27.3791 58.7112 26.9022 60.2317 25.9728C62.4021 24.6399 63.9226 22.5488 64.5235 20.0786C65.7497 14.9793 62.586 9.83105 57.4605 8.60819C54.9835 8.02122 52.4207 8.42476 50.2503 9.75768C48.0799 11.0906 46.5594 13.1817 45.9586 15.6519C45.37 18.122 45.7746 20.6778 47.1112 22.8423C48.4478 25.0067 50.5446 26.5231 53.0216 27.1223C53.7695 27.3057 54.5175 27.3913 55.2655 27.3913L55.2533 27.3791ZM52.666 13.6953C53.4507 13.2184 54.3213 12.9738 55.2165 12.9738C55.5966 12.9738 55.989 13.0227 56.3691 13.1083C58.9932 13.732 60.6241 16.3734 59.9987 19.0025C59.3734 21.6194 56.7247 23.2458 54.0884 22.6222C52.8131 22.3165 51.734 21.5338 51.0473 20.421C50.3607 19.3082 50.1522 17.9998 50.4588 16.728C50.7653 15.4562 51.5501 14.3801 52.666 13.6953Z" fill="#E13D6F"/>
<path d="M1.94975 59.1489L10.0182 60.4573C8.39964 77.1861 19.362 93.0221 36.2102 97.0453C38.8956 97.6812 41.5688 97.9869 44.2051 97.9869C58.1717 97.9869 70.998 89.4147 76.1726 76.2567L83.9591 78.7391C84.192 78.8125 84.425 78.8491 84.6703 78.8491C85.3447 78.8491 85.9946 78.5557 86.4483 78.0298C87.0491 77.3206 87.1717 76.3056 86.7426 75.4741L80.0352 62.5117C79.4466 61.3745 78.0487 60.9342 76.9083 61.5212L63.9104 68.2103C63.0766 68.6383 62.5861 69.531 62.6597 70.4603C62.7333 71.3897 63.3709 72.1846 64.266 72.478L71.7459 74.8504C67.2212 86.0029 56.3079 93.2789 44.4013 93.3523L58.3066 35.4376C65.2961 34.227 70.9489 29.0054 72.6288 22.0106C74.9341 12.4356 68.987 2.78725 59.3857 0.488274C54.7383 -0.624528 49.9316 0.133645 45.8605 2.62828C41.7895 5.12291 38.9324 9.04829 37.8166 13.6829C36.1366 20.6777 38.7975 27.8803 44.4872 32.1237L30.5819 90.0383C20.0119 84.5844 13.5743 73.1873 14.6166 61.191L22.3662 62.4506C22.4889 62.475 22.6115 62.475 22.7464 62.475C23.5434 62.475 24.2914 62.0715 24.7206 61.3745C25.2111 60.5796 25.1743 59.5646 24.6347 58.8065L16.088 46.9692C15.34 45.9298 13.8931 45.6974 12.8508 46.4434L0.968774 54.9911C0.20852 55.5414 -0.147082 56.483 0.0613743 57.4002C0.282093 58.3051 1.01782 59.0021 1.94975 59.1489ZM76.9696 66.6939L80.0474 72.6248L71.0225 69.7511L76.9696 66.6817V66.6939ZM49.3798 31.659C49.6128 30.6807 49.1958 29.6657 48.3252 29.1399C43.3958 26.1439 40.9925 20.372 42.329 14.7713C43.1506 11.335 45.2719 8.42463 48.2884 6.57812C51.3049 4.7316 54.861 4.16908 58.3066 4.9884C61.7523 5.80771 64.6707 7.92326 66.5223 10.9315C68.3739 13.9397 68.9379 17.486 68.1163 20.9223C66.7675 26.523 61.9975 30.5829 56.2466 31.0231C55.2411 31.0965 54.4073 31.8179 54.1743 32.7962L39.9134 92.215L35.1066 91.0655L49.3798 31.6467V31.659ZM13.6601 51.5794L17.5717 56.9966L8.22797 55.4803L13.6601 51.5794Z" fill="#E13D6F"/>
</g>
<defs>
<clipPath id="clip0_772_413">
<rect width="87" height="98" fill="white"/>
</clipPath>
</defs>
</svg>
