<svg width="83" height="92" viewBox="0 0 83 92" fill="none" xmlns="http://www.w3.org/2000/svg">
<g clip-path="url(#clip0_772_409)">
<path d="M0 72.4795C0 79.0795 1.56 83.7894 4.76 86.8794C8.9 90.8794 15.33 91.7094 22.99 91.7094C25.64 91.7094 28.44 91.6095 31.34 91.5095C34.58 91.3895 37.94 91.2694 41.41 91.2694C44.1 91.2694 46.74 91.3195 49.29 91.3695C61.43 91.6095 71.93 91.8195 77.87 85.9894C81.2 82.7295 82.82 77.8595 82.82 71.1195C82.82 55.0395 72.83 33.7095 56.69 27.2995C56.5 27.2295 56.3 27.1895 56.1 27.1895H26.73C26.53 27.1895 26.33 27.2295 26.14 27.2995C10.5 33.5095 0 55.6795 0 72.4795ZM27.04 30.3995H55.77C68.94 35.8195 79.6 54.0094 79.6 71.1294C79.6 76.9594 78.3 81.0794 75.62 83.7094C70.64 88.5895 60.77 88.3994 49.35 88.1694C46.78 88.1194 44.13 88.0695 41.41 88.0695C37.88 88.0695 34.5 88.1894 31.23 88.3094C20.69 88.6894 11.59 89.0095 6.99 84.5795C4.45 82.1195 3.21 78.1694 3.21 72.4894C3.21 53.1294 15.48 35.2095 27.04 30.4095V30.3995Z" fill="#E13D6F"/>
<path d="M28.66 24.28H53.81C54.25 24.28 54.68 24.1 54.98 23.77C59.66 18.77 62.45 8.58 62.45 1.6C62.45 0.72 61.73 0 60.85 0H21.63C20.74 0 20.03 0.72 20.03 1.6C20.03 8.57 22.82 18.77 27.5 23.77C27.8 24.09 28.23 24.28 28.67 24.28H28.66ZM59.19 3.21C58.83 9.09 56.57 16.92 53.09 21.07H29.39C25.9 16.91 23.65 9.09 23.29 3.21H59.19Z" fill="#E13D6F"/>
<path d="M29.62 72.4395C32.05 73.9495 35.61 74.5595 37.62 74.7995V78.0195C37.62 78.9095 38.34 79.6195 39.22 79.6195H44.13C44.56 79.6195 44.97 79.4495 45.27 79.1495C45.57 78.8495 45.74 78.4395 45.74 78.0095L45.72 74.2795C49.57 73.3495 53.42 70.0595 53.9 65.0095C54.49 58.6795 50.28 56.1095 49.43 55.6595C48.92 55.3895 48.16 55.0895 47.19 54.6995C45.5 54.0295 43.18 53.0995 41.5 52.0295C40.86 51.6195 40.62 51.0095 40.72 50.6195C40.84 50.1295 41.51 50.0095 41.9 49.9795C44.78 49.7795 49.25 51.2495 49.29 51.2595C49.72 51.3995 50.19 51.3595 50.59 51.1295C50.98 50.9095 51.27 50.5295 51.37 50.0795L52.56 44.7995C52.71 44.1395 52.43 43.4595 51.86 43.0995C50.33 42.1195 47.48 41.6295 45.67 41.3995V38.5395C45.67 37.6595 44.95 36.9395 44.07 36.9395H39.16C38.27 36.9395 37.56 37.6595 37.56 38.5395V42.1995C31.83 43.8295 29.06 47.7095 29.71 53.2395C30.43 59.3195 38.48 61.9195 40.09 62.3795C43.43 63.3395 43.31 63.8895 43.14 64.6595C42.95 65.4895 40.16 66.0295 37.45 65.4695C35.16 64.9995 33.12 63.9095 33.1 63.8995C32.68 63.6695 32.18 63.6495 31.74 63.8195C31.3 63.9995 30.96 64.3595 30.81 64.8195L28.96 70.5695C28.73 71.2695 29.02 72.0395 29.64 72.4195L29.62 72.4395ZM33.29 67.5395C34.22 67.9195 35.45 68.3495 36.78 68.6295C40.13 69.3195 45.42 69.0295 46.24 65.3795C47.2 61.0995 43.13 59.9395 40.95 59.3095C38.33 58.5595 33.28 56.2595 32.88 52.8795C32.38 48.5895 34.47 46.0995 39.48 45.0395C40.22 44.8795 40.75 44.2295 40.75 43.4695V40.1595H42.46V42.8595C42.46 43.6995 43.1 44.3895 43.94 44.4595C45.44 44.5795 47.71 44.9195 49.14 45.3795L48.61 47.7195C46.82 47.2395 43.96 46.6195 41.68 46.7795C39.61 46.9195 38.05 48.0895 37.61 49.8295C37.15 51.6495 38.01 53.6195 39.77 54.7395C41.7 55.9795 44.19 56.9695 46 57.6895C46.8 58.0095 47.56 58.3095 47.92 58.4995C48.46 58.7795 51.1 60.4195 50.7 64.7195C50.33 68.6795 46.96 71.0895 43.97 71.3295C43.13 71.3995 42.49 72.0995 42.5 72.9395L42.52 76.4195H40.82V73.3395C40.82 72.4895 40.15 71.7795 39.3 71.7395C38.07 71.6695 34.78 71.2895 32.4 70.2795L33.28 67.5495L33.29 67.5395Z" fill="#E13D6F"/>
</g>
<defs>
<clipPath id="clip0_772_409">
<rect width="82.81" height="91.71" fill="white"/>
</clipPath>
</defs>
</svg>
