<svg width="79" height="71" viewBox="0 0 79 71" fill="none" xmlns="http://www.w3.org/2000/svg">
<g clip-path="url(#clip0_770_407)">
<path d="M33.61 65.46L37.78 69.35C37.78 69.35 37.85 69.42 37.89 69.45L38.23 69.72C38.58 70 39 70.14 39.42 70.14C39.89 70.14 40.37 69.96 40.73 69.62L45.17 65.47C75.27 37.36 78.34 20.81 78.53 19.54C78.71 18.6 78.79 17.79 78.79 16.98C78.79 7.61 69.45 0 57.98 0C49.65 0 42.74 8.38 39.39 15.59C36.05 8.38 29.13 0 20.8 0C9.33 0 0 7.61 0 16.96C0 17.76 0.08 18.58 0.24 19.45C0.35 20.14 1.16 24.58 5.61 32.26C11.51 42.45 20.93 53.62 33.61 65.46ZM20.8 3.81C29.04 3.81 36.18 15.61 37.53 21.67C37.72 22.54 38.5 23.16 39.39 23.16C40.28 23.16 41.05 22.54 41.25 21.67C42.6 15.61 49.74 3.81 57.98 3.81C67.35 3.81 74.98 9.71 74.98 16.96C74.98 17.54 74.92 18.14 74.78 18.85C74.78 18.88 74.77 18.91 74.76 18.94C74.74 19.1 72.2 34.99 42.57 62.66L39.39 65.63L36.21 62.66C6.58 35 4.1 19.51 4.01 18.86C4.01 18.83 4.01 18.8 3.99 18.77C3.87 18.12 3.81 17.53 3.81 16.96C3.81 9.71 11.43 3.81 20.8 3.81Z" fill="#E13D6F"/>
</g>
<defs>
<clipPath id="clip0_770_407">
<rect width="78.79" height="70.13" fill="white"/>
</clipPath>
</defs>
</svg>
