<svg width="73" height="73" viewBox="0 0 73 73" fill="none" xmlns="http://www.w3.org/2000/svg">
<g clip-path="url(#clip0_740_424)">
<path d="M2.13 49.86H22.64V70.36C22.64 71.54 23.59 72.49 24.77 72.49H47.74C48.92 72.49 49.87 71.54 49.87 70.36V49.86H70.38C71.56 49.86 72.51 48.91 72.51 47.73V24.76C72.51 23.58 71.56 22.63 70.38 22.63H49.87V2.13C49.87 0.95 48.92 0 47.74 0H24.76C23.59 0 22.63 0.95 22.63 2.13V22.63H2.13C0.95 22.63 0 23.59 0 24.76V47.73C0 48.91 0.95 49.86 2.13 49.86ZM4.26 26.89H24.76C25.94 26.89 26.89 25.94 26.89 24.76V4.26H45.61V24.76C45.61 25.93 46.56 26.89 47.74 26.89H68.25V45.61H47.74C46.56 45.61 45.61 46.56 45.61 47.74V68.25H26.89V47.74C26.89 46.56 25.94 45.61 24.76 45.61H4.26V26.89Z" fill="#E13D6F"/>
</g>
<defs>
<clipPath id="clip0_740_424">
<rect width="72.5" height="72.5" fill="white"/>
</clipPath>
</defs>
</svg>
