<svg width="108" height="108" viewBox="0 0 108 108" fill="none" xmlns="http://www.w3.org/2000/svg">
<path d="M54 108C83.8234 108 108 83.8234 108 54C108 24.1766 83.8234 0 54 0C24.1766 0 0 24.1766 0 54C0 83.8234 24.1766 108 54 108Z" fill="url(#paint0_linear_660_488)"/>
<path d="M70.7583 33.5781C68.7131 33.5781 67.0342 35.2265 67.0342 37.3023C67.0342 39.378 68.6826 41.0264 70.7583 41.0264C72.8341 41.0264 74.4825 39.378 74.4825 37.3023C74.4825 35.2265 72.8341 33.5781 70.7583 33.5781Z" fill="white"/>
<path d="M54.2744 38.3403C45.6662 38.3403 38.6758 45.3307 38.6758 53.939C38.6758 62.5472 45.6662 69.5376 54.2744 69.5376C62.8827 69.5376 69.8731 62.5472 69.8731 53.939C69.8731 45.3307 62.8827 38.3403 54.2744 38.3403ZM54.2744 63.9209C48.7798 63.9209 44.2925 59.4336 44.2925 53.939C44.2925 48.4443 48.7798 43.9571 54.2744 43.9571C59.7691 43.9571 64.2563 48.4443 64.2563 53.939C64.2563 59.4336 59.7691 63.9209 54.2744 63.9209Z" fill="white"/>
<path d="M66.6375 85.594H41.3622C30.8614 85.594 22.3447 77.0468 22.3447 66.5765V41.3012C22.3447 30.8004 30.8614 22.2837 41.3622 22.2837H66.6375C77.1384 22.2837 85.6551 30.8004 85.6551 41.3012V66.5765C85.6551 77.0774 77.1079 85.594 66.6375 85.594ZM41.3622 28.2362C34.1582 28.2362 28.2972 34.0971 28.2972 41.3012V66.5765C28.2972 73.7806 34.1582 79.6415 41.3622 79.6415H66.6375C73.8416 79.6415 79.7026 73.7806 79.7026 66.5765V41.3012C79.7026 34.0971 73.8416 28.2362 66.6375 28.2362H41.3622Z" fill="white"/>
<defs>
<linearGradient id="paint0_linear_660_488" x1="3.41888" y1="11.264" x2="111.388" y2="102.475" gradientUnits="userSpaceOnUse">
<stop stop-color="#FBE18A"/>
<stop offset="0.21" stop-color="#FCBB45"/>
<stop offset="0.38" stop-color="#F75274"/>
<stop offset="0.52" stop-color="#D53692"/>
<stop offset="0.74" stop-color="#8F39CE"/>
<stop offset="1" stop-color="#5B4FE9"/>
</linearGradient>
</defs>
</svg>
