<svg width="258" height="406" viewBox="0 0 258 406" fill="none" xmlns="http://www.w3.org/2000/svg">
<g clip-path="url(#clip0_778_761)">
<path d="M106.261 67.0762C47.6853 67.0762 0 114.648 0 173.164C0 186.817 0.832141 198.773 5.06521 216.328C12.6992 247.248 31.3681 289.654 37.6634 303.56C34.8414 307.425 33.2857 311.977 33.2495 316.708C33.1771 322.704 35.5288 328.339 39.581 332.674C35.6374 336.864 33.3218 342.282 33.2495 348.098C33.1771 354.888 36.1439 361.101 41.0644 365.544C37.4825 369.626 35.3841 374.791 35.3117 380.39C35.2032 393.646 46.7808 404.555 61.1805 404.771L157.058 406.036C157.058 406.036 157.311 406.036 157.419 406.036C164.583 406.036 171.457 403.327 176.342 398.559C180.864 394.152 183.361 388.409 183.433 382.304C183.505 375.513 180.538 369.337 175.618 364.858C179.2 360.776 181.298 355.575 181.334 350.012C181.407 344.016 179.055 338.417 175.003 334.083C178.947 329.893 181.262 324.438 181.334 318.659C181.407 312.699 179.055 307.209 175.184 302.946C181.769 288.39 199.967 246.814 207.456 216.364C211.69 198.846 212.522 186.89 212.522 173.236C212.522 114.756 164.873 67.1484 106.261 67.1484V67.0762ZM165.958 387.903C163.787 390.034 160.603 391.262 157.239 391.19L61.3976 389.926C55.1384 389.853 50.1094 385.627 50.1817 380.534C50.2179 376.597 53.3294 373.129 57.9243 371.901C61.289 370.998 63.6045 367.892 63.4236 364.388C63.2427 360.92 60.674 358.031 57.2369 357.453C51.8822 356.55 48.0471 352.685 48.0833 348.242C48.1195 344.522 51.0501 341.09 55.3555 339.754C58.4308 338.778 60.5654 335.961 60.5654 332.71C60.5654 329.459 58.5032 326.606 55.3917 325.63C50.9777 324.222 48.0109 320.682 48.0471 316.853C48.0471 314.975 48.7707 313.494 49.5667 312.374H163.751C165.451 314.035 166.501 316.13 166.464 318.442C166.464 322.163 163.534 325.594 159.228 326.931C156.153 327.87 154.019 330.723 154.019 333.974C154.019 337.189 156.081 340.079 159.156 341.054C163.57 342.463 166.501 346.003 166.464 349.831C166.464 353.769 163.317 357.236 158.722 358.464C155.357 359.367 153.042 362.474 153.223 365.977C153.403 369.445 155.972 372.335 159.409 372.913C164.655 373.78 168.599 377.753 168.527 382.124C168.527 384.833 167.08 386.783 165.922 387.939L165.958 387.903ZM193.021 212.752C185.785 242.191 167.333 284.127 161.291 297.528H51.231C45.1889 284.127 26.7371 242.191 19.5011 212.788C15.6298 196.678 14.8338 185.698 14.8338 173.127C14.8338 122.811 55.8258 81.8497 106.261 81.8497C156.696 81.8497 197.688 122.775 197.688 173.127C197.688 185.661 196.892 196.678 193.021 212.752Z" fill="#E13D6F"/>
<path d="M252.284 58.732L207.095 83.4749C205.213 84.4863 204.526 86.8341 205.575 88.7124C205.973 89.4348 206.588 89.9766 207.276 90.3379C208.361 90.8435 209.663 90.8797 210.821 90.2656L256.01 65.5227C257.891 64.5113 258.543 62.1635 257.53 60.2852C256.517 58.4069 254.165 57.7206 252.284 58.7681V58.732Z" fill="#E13D6F"/>
<path d="M185.206 72.4224C187.485 72.9642 189.837 71.6639 190.524 69.3883L210.64 5.88757C211.4 3.50358 210.061 0.97511 207.71 0.216569C205.322 -0.541972 202.789 0.794505 202.029 3.17849L181.949 66.6792C181.19 69.0632 182.528 71.5917 184.916 72.3502C185.025 72.3863 185.133 72.4224 185.242 72.4224H185.206Z" fill="#E13D6F"/>
<path d="M91.8611 101.501C75.2183 101.862 43.0904 112.157 40.6663 148.603C40.3407 153.479 44.0672 157.705 48.9515 158.03C53.7997 158.319 58.0689 154.635 58.3945 149.759C58.5392 147.411 58.9011 145.207 59.4799 142.968C63.1703 128.339 75.0735 122.596 84.3718 120.356C88.7496 119.309 91.9334 119.2 92.2952 119.164C97.1796 119.056 101.087 115.01 100.978 110.134C100.87 105.33 96.8901 101.465 91.9334 101.465L91.8611 101.501Z" fill="#E13D6F"/>
</g>
<defs>
<clipPath id="clip0_778_761">
<rect width="258" height="406" fill="white"/>
</clipPath>
</defs>
</svg>
