<svg width="339" height="300" viewBox="0 0 339 300" fill="none" xmlns="http://www.w3.org/2000/svg">
<g clip-path="url(#clip0_778_867)">
<path d="M308.864 152.346C317.147 143.221 323.655 132.213 327.648 120.392C330.939 110.713 332.64 100.48 332.64 90.0259C332.64 66.1249 323.877 43.5907 307.903 26.5608C291.818 9.45696 270.483 0 247.742 0C214.5 0 184.106 20.8349 170.35 53.0477C169.574 54.8578 167.984 56.003 166.32 56.003C164.656 56.003 163.029 54.8208 162.253 53.0477C148.497 20.8349 118.103 0 84.8609 0C62.1574 0 40.785 9.45696 24.7372 26.5608C8.80039 43.5537 0 66.0879 0 90.0259C0 100.222 1.58999 110.233 4.76996 119.764C8.24575 130.218 13.4964 139.897 20.411 148.467C23.3321 152.087 26.5491 155.449 29.7291 158.367L161.698 297.931C162.955 299.261 164.693 300 166.542 300C168.391 300 170.129 299.261 171.386 297.931L209.878 257.185C212.282 260.805 214.981 264.241 217.976 267.418C231.399 281.492 249.11 289.25 267.894 289.25H268.449C307.644 288.955 339.259 254.895 339 213.299C338.852 192.649 330.569 172.7 316.259 158.589C313.93 156.298 311.416 154.23 308.864 152.309V152.346ZM166.542 283.672L39.8606 149.612C39.8606 149.612 39.7127 149.464 39.6387 149.39L38.8253 148.615C35.9781 146.029 33.2418 143.147 30.7644 140.081C24.8851 132.767 20.374 124.492 17.4159 115.552C14.7166 107.388 13.3115 98.7809 13.3115 90.0259C13.3115 69.4865 20.8177 50.2032 34.462 35.6853C47.9584 21.2782 65.892 13.3727 84.8609 13.3358C112.741 13.3358 138.292 30.9937 149.976 58.3303C152.861 65.0536 159.258 69.3757 166.283 69.3757C173.309 69.3757 179.706 65.0536 182.59 58.3303C194.274 31.0307 219.825 13.3727 247.705 13.3727C266.711 13.3727 284.608 21.3151 298.104 35.7222C311.748 50.2771 319.255 69.5604 319.255 90.0628C319.255 99.0395 317.812 107.832 315.002 116.143C311.453 126.635 305.61 136.387 298.178 144.293C298.178 144.293 297.919 144.588 297.771 144.736L297.217 145.327C287.936 140.857 277.804 138.493 267.377 138.456C228.219 138.751 196.567 172.811 196.826 214.37C196.9 225.046 199.118 235.353 203.149 244.81L166.468 283.635L166.542 283.672ZM268.412 280.384C251.994 280.606 236.279 273.735 224.447 261.322C212.541 248.836 205.922 232.139 205.811 214.333C205.589 177.651 233.247 147.617 267.525 147.359C283.313 147.248 298.4 153.491 310.047 164.943C322.693 177.392 330.015 195.05 330.126 213.373C330.384 250.055 302.689 280.126 268.412 280.384Z" fill="#E13D6F"/>
<path d="M286.567 159.328H249.295V194.275H216.497V233.395H249.295V268.342H286.567V233.395H319.366V194.275H286.567V159.328ZM296.662 203.14H310.491V224.529H277.693V259.476H258.17V224.529H225.371V203.14H258.17V168.194H277.693V203.14H296.662Z" fill="#E13D6F"/>
</g>
<defs>
<clipPath id="clip0_778_867">
<rect width="339" height="300" fill="white"/>
</clipPath>
</defs>
</svg>
