<svg width="485" height="374" viewBox="0 0 485 374" fill="none" xmlns="http://www.w3.org/2000/svg">
<g clip-path="url(#clip0_778_1097)">
<path d="M225.086 157.35H43.7954C36.5382 157.35 36.5382 168.611 43.7954 168.611H225.086C232.343 168.611 232.343 157.35 225.086 157.35Z" fill="#272525"/>
<path d="M225.086 208.752H43.7954C36.5382 208.752 36.5382 220.013 43.7954 220.013H225.086C232.343 220.013 232.343 208.752 225.086 208.752Z" fill="#272525"/>
<path d="M225.086 260.129H43.7954C36.5382 260.129 36.5382 271.39 43.7954 271.39H225.086C232.343 271.39 232.343 260.129 225.086 260.129Z" fill="#272525"/>
<path d="M225.086 311.531H43.7954C36.5382 311.531 36.5382 322.792 43.7954 322.792H225.086C232.343 322.792 232.343 311.531 225.086 311.531Z" fill="#272525"/>
<path d="M62.9332 111.576C62.9332 103.593 56.4326 97.0938 48.4468 97.0938C40.4611 97.0938 33.9604 103.593 33.9604 111.576C33.9604 119.56 40.4611 126.059 48.4468 126.059C56.4326 126.059 62.9332 119.56 62.9332 111.576ZM39.9848 111.576C39.9848 106.898 43.7675 103.117 48.4468 103.117C53.1262 103.117 56.9089 106.926 56.9089 111.576C56.9089 116.227 53.1262 120.036 48.4468 120.036C43.7675 120.036 39.9848 116.227 39.9848 111.576Z" fill="#272525"/>
<path d="M91.4298 126.059C99.4155 126.059 105.916 119.56 105.916 111.576C105.916 103.593 99.4155 97.0938 91.4298 97.0938C83.444 97.0938 76.9434 103.593 76.9434 111.576C76.9434 119.56 83.444 126.059 91.4298 126.059ZM91.4298 103.117C96.1091 103.117 99.8918 106.926 99.8918 111.576C99.8918 116.227 96.0811 120.036 91.4298 120.036C86.7784 120.036 82.9677 116.227 82.9677 111.576C82.9677 106.926 86.7504 103.117 91.4298 103.117Z" fill="#272525"/>
<path d="M134.44 126.059C142.426 126.059 148.927 119.56 148.927 111.576C148.927 103.593 142.426 97.0938 134.44 97.0938C126.455 97.0938 119.954 103.593 119.954 111.576C119.954 119.56 126.455 126.059 134.44 126.059ZM134.44 103.117C139.12 103.117 142.903 106.926 142.903 111.576C142.903 116.227 139.12 120.036 134.44 120.036C129.761 120.036 125.978 116.227 125.978 111.576C125.978 106.926 129.761 103.117 134.44 103.117Z" fill="#272525"/>
<path d="M177.423 126.059C185.409 126.059 191.91 119.56 191.91 111.576C191.91 103.593 185.409 97.0938 177.423 97.0938C169.438 97.0938 162.937 103.593 162.937 111.576C162.937 119.56 169.438 126.059 177.423 126.059ZM177.423 103.117C182.103 103.117 185.885 106.926 185.885 111.576C185.885 116.227 182.103 120.036 177.423 120.036C172.744 120.036 168.961 116.227 168.961 111.576C168.961 106.926 172.744 103.117 177.423 103.117Z" fill="#272525"/>
<path d="M205.948 111.576C205.948 119.56 212.448 126.059 220.434 126.059C228.42 126.059 234.921 119.56 234.921 111.576C234.921 103.593 228.42 97.0938 220.434 97.0938C212.448 97.0938 205.948 103.593 205.948 111.576ZM220.434 103.117C225.085 103.117 228.896 106.926 228.896 111.576C228.896 116.227 225.085 120.036 220.434 120.036C215.783 120.036 211.972 116.227 211.972 111.576C211.972 106.926 215.783 103.117 220.434 103.117Z" fill="#272525"/>
<path d="M285.637 92.191C282.975 92.247 279.641 92.191 275.886 91.9669V57.7911H238.115C245.036 51.5443 248.987 42.3841 249.071 34.2883C249.183 22.9151 242.346 14.4272 230.774 11.5419C222.283 9.44091 214.802 10.6455 209.058 15.0435C203.342 19.4135 199.503 26.921 198.046 36.1932C197.99 36.1092 197.962 36.0251 197.906 35.9691C193.311 28.2656 194.796 20.3379 197.234 10.7855C198.607 5.37904 194.964 1.3732 190.817 0.336725C186.726 -0.699751 181.879 1.00903 180.534 6.33148C177.255 19.3014 174.986 35.9691 186.866 50.1156C189.304 53.029 192.218 55.6342 195.412 57.8472H0V374.085H275.886V109.279C278.296 109.419 280.705 109.503 283.171 109.503C284.04 109.503 284.88 109.503 285.749 109.503C291.297 109.391 294.211 104.825 294.127 100.567C294.043 96.3369 291.073 92.219 285.609 92.219L285.637 92.191ZM266.863 66.7833V90.9584C251.845 88.6894 233.66 82.4705 222.34 66.7833H266.863ZM266.863 364.98H9.02247V66.7833H202.081C213.289 89.6418 236.854 104.489 266.863 108.41V364.98ZM285.637 103.452C249.099 104.208 219.818 89.4177 207.433 64.038C206.508 62.1612 205.724 60.0042 205.079 57.5951L204.743 56.2785L203.538 55.6902C198.887 53.3651 194.712 50.0596 191.461 46.1938C181.43 34.2323 183.251 20.0578 186.362 7.76014C186.726 6.33148 187.707 6.02334 188.491 6.02334C188.827 6.02334 189.136 6.07937 189.36 6.13539C189.808 6.24744 192.022 6.94777 191.405 9.30085C188.743 19.8617 186.978 29.3581 192.75 39.0505C194.179 41.4596 196.085 43.7567 198.41 45.8857L203.314 50.3957L203.454 43.7287C203.65 32.9157 207.041 24.2317 212.757 19.8617C217.044 16.5842 222.62 15.7718 229.345 17.4246C241.421 20.422 243.13 29.274 243.074 34.2603C242.962 44.1769 235.789 56.0543 223.965 58.7156C221.499 59.2758 218.837 59.4719 216.119 59.2758L210.711 58.9117L213.233 63.7019C230.213 95.8046 269.609 98.5219 285.749 98.2418H285.805C287.851 98.2418 288.103 99.9505 288.103 100.707C288.103 101.155 288.019 103.48 285.609 103.508L285.637 103.452Z" fill="#272525"/>
<path d="M229.541 50.8166C239.516 44.2336 238.787 36.9503 238.003 34.121C236.378 28.2943 230.437 23.8682 223.853 23.5881C217.044 23.28 211.384 27.4819 208.694 34.7933C206.985 39.4154 206.817 44.7659 208.218 50.6766L208.61 52.3293L210.207 52.8616C212.869 53.73 215.531 54.1782 218.109 54.1782C222.256 54.1782 226.15 53.0577 229.541 50.8166ZM213.709 47.6232C212.981 43.5333 213.177 40.0317 214.326 36.8942C216.119 32.02 219.398 29.4148 223.601 29.6109C227.523 29.779 231.278 32.4682 232.203 35.7457C233.127 39.0792 230.998 42.6649 226.234 45.8023C221.919 48.6596 217.268 48.4916 213.709 47.6232Z" fill="#272525"/>
<path d="M463.34 359.91C464.293 359.91 465.246 359.602 466.03 358.957L483.403 344.839C484.271 344.139 484.832 343.074 484.972 341.954C485.084 340.833 484.748 339.712 484.047 338.816L440.392 285.087C447.481 275.787 451.936 264.694 453.169 252.733C454.934 235.617 449.947 218.837 439.103 205.475C416.715 177.91 376.058 173.708 348.486 196.09C335.12 206.931 326.798 222.339 325.033 239.454C323.268 256.57 328.255 273.35 339.099 286.712C349.943 300.074 365.354 308.394 382.474 310.159C384.744 310.383 386.986 310.495 389.227 310.495C398.67 310.495 407.861 308.422 416.323 304.472L460.062 358.285C460.903 359.322 462.136 359.854 463.368 359.854L463.34 359.91ZM383.315 301.671C368.464 300.13 355.127 292.903 345.712 281.334C336.297 269.764 331.982 255.198 333.495 240.351C335.036 225.504 342.266 212.142 353.838 202.758C364.177 194.354 376.618 190.292 389.003 190.292C405.255 190.292 421.394 197.323 432.434 210.909C441.849 222.479 446.192 237.045 444.651 251.892C443.11 266.739 435.881 280.073 424.308 289.485C412.708 298.898 398.166 303.24 383.315 301.699V301.671ZM429.688 296.096C431.426 294.668 433.079 293.183 434.648 291.614L474.689 340.889L463.929 349.601L423.86 300.27C425.85 298.982 427.811 297.581 429.66 296.068L429.688 296.096Z" fill="#272525"/>
<path d="M425.681 216.371C417.752 206.595 406.46 200.488 393.935 199.199C381.41 197.911 369.109 201.552 359.33 209.508C349.551 217.436 343.442 228.725 342.153 241.247C340.865 253.768 344.507 266.066 352.465 275.815C361.768 287.272 375.385 293.211 389.115 293.211C399.567 293.211 410.074 289.765 418.816 282.678C438.991 266.29 442.073 236.54 425.681 216.343V216.371ZM413.409 276.067C396.877 289.485 372.527 286.964 359.106 270.436C352.605 262.424 349.607 252.368 350.672 242.115C351.736 231.862 356.724 222.646 364.738 216.119C371.687 210.488 380.177 207.491 389.003 207.491C390.348 207.491 391.693 207.547 393.066 207.687C403.321 208.752 412.54 213.738 419.069 221.75C432.49 238.277 429.968 262.62 413.437 276.039L413.409 276.067Z" fill="#272525"/>
</g>
<defs>
<clipPath id="clip0_778_1097">
<rect width="485" height="374" fill="white"/>
</clipPath>
</defs>
</svg>
