<svg width="106" height="81" viewBox="0 0 106 81" fill="none" xmlns="http://www.w3.org/2000/svg">
<g clip-path="url(#clip0_778_744)">
<path d="M13.9599 27.7402H57.5099C58.2199 27.7402 58.7999 27.1602 58.7999 26.4502C58.7999 25.7402 58.2199 25.1602 57.5099 25.1602H13.9599C13.2499 25.1602 12.6699 25.7402 12.6699 26.4502C12.6699 27.1602 13.2499 27.7402 13.9599 27.7402Z" fill="#E13D6F"/>
<path d="M57.5099 60.8008H13.9599C13.2499 60.8008 12.6699 61.3808 12.6699 62.0908C12.6699 62.8008 13.2499 63.3808 13.9599 63.3808H57.5099C58.2199 63.3808 58.7999 62.8008 58.7999 62.0908C58.7999 61.3808 58.2199 60.8008 57.5099 60.8008Z" fill="#E13D6F"/>
<path d="M102.88 2.97C102.88 2.97 102.82 2.9 102.8 2.88C101.12 1.2 99.24 0.34 97.28 0.36C94.21 0.37 92.01 2.51 91.84 2.68L75.03 19.49C74.79 19.73 74.65 20.06 74.65 20.4C74.65 20.51 74.67 20.62 74.7 20.73L73.7 21.73L73.24 21.27L71.47 23.04V0H0V81H71.47V45.2L84.32 32.35L83.86 31.89L84.86 30.89C84.97 30.92 85.08 30.94 85.19 30.94C85.52 30.94 85.85 30.81 86.11 30.56L102.68 13.99C102.78 13.89 105.19 11.56 105.24 8.33C105.27 6.41 104.49 4.61 102.88 2.96V2.97ZM68.89 47.79V78.41H2.59V2.59H68.89V25.63L54.45 40.06L55.48 41.1L55.13 43.12H13.96C13.25 43.12 12.67 43.7 12.67 44.41C12.67 45.12 13.25 45.7 13.96 45.7H54.69L53.6 52.03L64.54 50.14L65.54 51.14L68.89 47.79L70.18 46.5L68.89 47.79ZM56.96 50.76L54.56 51.21L54.39 51.24L54.84 48.64L55.4 49.2L56.6 42.21L63.41 49.02L56.43 50.23L56.96 50.76ZM65.54 47.49L58.12 40.07L73.25 24.94L80.67 32.36L65.54 47.49ZM82.5 31.45L74.16 23.11L75.02 22.25L83.36 30.59L82.5 31.45ZM100.88 12.16L85.21 27.84L77.78 20.41L93.68 4.52C93.68 4.52 95.26 2.96 97.29 2.95C98.56 2.95 99.77 3.53 100.94 4.69C100.96 4.72 100.99 4.74 101.01 4.76C102.12 5.88 102.67 7.07 102.66 8.29C102.63 10.43 100.91 12.13 100.88 12.16Z" fill="#E13D6F"/>
<path d="M74.9799 16.1707C75.4199 16.6107 76.1399 16.6107 76.5899 16.1707L88.5099 4.2507C88.9499 3.8107 88.9499 3.0907 88.5099 2.6407L88.4899 2.6207C88.0499 2.1707 87.3299 2.1707 86.8799 2.6207L74.9599 14.5407C74.5199 14.9807 74.5199 15.7007 74.9599 16.1507L74.9799 16.1707Z" fill="#E13D6F"/>
</g>
<defs>
<clipPath id="clip0_778_744">
<rect width="105.24" height="81" fill="white"/>
</clipPath>
</defs>
</svg>
