<svg width="69" height="79" viewBox="0 0 69 79" fill="none" xmlns="http://www.w3.org/2000/svg">
<g clip-path="url(#clip0_778_749)">
<path d="M6.04 50.71V67.93C6.04 73.7 10.73 78.39 16.5 78.39C22.27 78.39 26.96 73.7 26.96 67.93V12.06H27.98C30.75 12.06 33 9.36 33 6.03C33 2.7 30.75 0 27.98 0H5.02C2.25 0 0 2.71 0 6.03C0 9.35 2.25 12.06 5.02 12.06H6.04V50.7V50.71ZM23.56 50.71V67.93C23.56 71.83 20.39 74.99 16.5 74.99C12.61 74.99 9.44 71.82 9.44 67.93V50.72V12.06H23.56V50.71ZM5.02 8.67C4.25 8.67 3.39 7.59 3.39 6.04C3.39 4.49 4.25 3.41 5.02 3.41H27.98C28.75 3.41 29.61 4.49 29.61 6.04C29.61 7.59 28.75 8.67 27.98 8.67H5.02Z" fill="#E13D6F"/>
<path d="M41.2602 67.92C41.2602 73.69 45.9502 78.38 51.7202 78.38C57.4902 78.38 62.1802 73.69 62.1802 67.92V12.06H63.2002C65.9702 12.06 68.2202 9.36 68.2202 6.03C68.2202 2.7 65.9702 0 63.2002 0H40.2402C37.4702 0 35.2202 2.71 35.2202 6.03C35.2202 9.35 37.4702 12.06 40.2402 12.06H41.2602V67.92ZM58.7802 34.38V67.92C58.7802 71.81 55.6102 74.98 51.7202 74.98C47.8302 74.98 44.6602 71.81 44.6602 67.92V12.06H58.7802V34.38ZM40.2402 8.67C39.4702 8.67 38.6102 7.59 38.6102 6.04C38.6102 4.49 39.4702 3.41 40.2402 3.41H63.2002C63.9702 3.41 64.8202 4.49 64.8202 6.04C64.8202 7.59 63.9602 8.67 63.2002 8.67H40.2402Z" fill="#E13D6F"/>
<path d="M22.8202 66.4093C22.8702 65.7393 22.3702 65.1493 21.7002 65.0893C21.0302 65.0393 20.4402 65.5493 20.3902 66.2093C20.3602 66.5293 20.3102 66.8393 20.2302 67.1493C19.7002 69.1593 18.0502 69.9393 16.7702 70.2293C16.1602 70.3693 15.7202 70.3793 15.6802 70.3793C15.0102 70.3793 14.4702 70.9393 14.4702 71.6193C14.4702 72.2793 15.0202 72.8193 15.7002 72.8293C17.9902 72.8093 22.4302 71.4293 22.8302 66.4093H22.8202Z" fill="#E13D6F"/>
<path d="M50.9099 72.8293C53.1999 72.8093 57.6499 71.4293 58.0399 66.4093C58.0899 65.7393 57.5899 65.1493 56.9199 65.0893C56.2499 65.0393 55.6599 65.5493 55.6099 66.2093C55.5799 66.5293 55.5299 66.8393 55.4499 67.1493C54.9199 69.1593 53.2699 69.9393 51.9899 70.2293C51.3899 70.3693 50.9399 70.3793 50.8999 70.3793C50.2299 70.3793 49.6899 70.9393 49.6899 71.6193C49.6899 72.2793 50.2399 72.8193 50.9199 72.8293H50.9099Z" fill="#E13D6F"/>
<path d="M8.91006 52.2896H24.0901C26.1401 52.2896 26.1401 49.0996 24.0901 49.0996H8.91006C6.86006 49.0996 6.86006 52.2896 8.91006 52.2896Z" fill="#E13D6F"/>
<path d="M43.4198 35.9791H60.0098C62.0598 35.9791 62.0598 32.7891 60.0098 32.7891H43.4198C41.3698 32.7891 41.3698 35.9791 43.4198 35.9791Z" fill="#E13D6F"/>
</g>
<defs>
<clipPath id="clip0_778_749">
<rect width="68.22" height="78.38" fill="white"/>
</clipPath>
</defs>
</svg>
