<svg width="313" height="403" viewBox="0 0 313 403" fill="none" xmlns="http://www.w3.org/2000/svg">
<g clip-path="url(#clip0_778_1161)">
<path d="M49.9341 403H263.102C290.615 403 313.036 380.613 313.036 353.063V216.539C313.036 191.227 294.117 170.321 269.673 167.107V113.162C269.637 50.7677 218.873 0 156.518 0C94.1636 0 43.3629 50.7677 43.3629 113.126V167.071C18.9194 170.285 0 191.227 0 216.503V353.027C0 380.541 22.3855 402.964 49.9341 402.964V403ZM18.6666 216.539C18.6666 199.279 32.7117 185.27 49.9341 185.27H263.102C280.361 185.27 294.369 199.315 294.369 216.539V353.063C294.369 370.322 280.324 384.332 263.102 384.332H49.9341C32.6756 384.332 18.6666 370.286 18.6666 353.063V216.539ZM156.518 18.6678C208.619 18.6678 251.007 61.0584 251.007 113.162V166.638H236.095V113.162C236.095 69.291 200.386 33.5803 156.518 33.5803C112.65 33.5803 76.9412 69.2549 76.9412 113.162V166.638H62.0295V113.162C62.0295 61.0584 104.418 18.6678 156.518 18.6678ZM217.428 166.638H95.6078V113.162C95.6078 79.5818 122.94 52.2481 156.518 52.2481C190.096 52.2481 217.428 79.5818 217.428 113.162V166.638Z" fill="#272525"/>
<path d="M137.888 335.407H175.113C179.229 335.407 182.551 332.085 182.551 327.932V241.634C182.551 237.518 179.229 234.16 175.113 234.16H137.888C133.772 234.16 130.414 237.482 130.414 241.634V327.932C130.414 332.049 133.772 335.407 137.888 335.407ZM145.362 249.109H167.675V320.494H145.362V249.109Z" fill="#272525"/>
</g>
<defs>
<clipPath id="clip0_778_1161">
<rect width="313" height="403" fill="white"/>
</clipPath>
</defs>
</svg>
