<svg width="75" height="72" viewBox="0 0 75 72" fill="none" xmlns="http://www.w3.org/2000/svg">
<g clip-path="url(#clip0_778_756)">
<path d="M33.0501 30.48C33.3201 30.77 33.6901 30.92 34.0501 30.92C34.4001 30.92 34.7801 30.77 35.0501 30.48L48.0001 16.76C48.0001 16.76 48.0101 16.74 48.0201 16.73C48.9501 15.73 49.6901 14.51 50.1501 13.15C50.5001 12.11 50.6901 10.98 50.6901 9.82C50.6901 4.4 46.5601 0 41.4801 0C38.4001 0 35.6901 1.63 34.0201 4.1C32.3501 1.63 29.6401 0 26.5601 0C21.4801 0 17.3501 4.4 17.3501 9.82C17.3501 10.96 17.5301 12.06 17.8701 13.08C18.2601 14.24 18.8401 15.31 19.5801 16.22C19.8801 16.59 20.2001 16.93 20.5501 17.25L33.0401 30.48H33.0501ZM20.1001 12.26C19.8401 11.48 19.7101 10.66 19.7101 9.82C19.7101 7.86 20.4301 6.02 21.7301 4.63C23.0301 3.25 24.7401 2.48 26.5701 2.48C29.2501 2.48 31.7001 4.17 32.8201 6.79C33.0301 7.29 33.5101 7.62 34.0301 7.62C34.5501 7.62 35.0301 7.3 35.2401 6.79C36.3601 4.17 38.8101 2.48 41.4901 2.48C43.3101 2.48 45.0301 3.24 46.3301 4.62C47.6301 6.01 48.3501 7.85 48.3501 9.81C48.3501 10.67 48.2101 11.51 47.9401 12.3C47.6001 13.3 47.0401 14.23 46.3201 15.01L34.0501 28.01L22.2201 15.48L22.1501 15.42C21.8801 15.17 21.6201 14.9 21.3801 14.6C20.8201 13.9 20.3901 13.11 20.1001 12.25V12.26Z" fill="#E13D6F"/>
<path d="M74.17 44.6808C73.88 44.2908 73.43 44.0608 72.95 44.0608C69.21 44.0608 66.66 42.0408 63.7 39.7008C63.06 39.1908 62.41 38.6808 61.74 38.1808C59 36.1408 55.52 34.0508 50.54 34.0508C48.4 34.0508 46.75 34.0708 45.4 34.1108H34.9C32.53 34.1108 30.61 36.1208 30.61 38.5908C30.61 41.0608 32.54 43.0708 34.9 43.0708H44.61C45.85 43.3508 46.75 44.5408 46.75 45.9508C46.75 46.9608 46.27 47.9008 45.48 48.4308L41.9 49.4408C40.69 49.7508 39.46 50.0908 38.18 50.4908L37.93 50.5608C31.26 52.4408 28.97 53.0708 28.29 53.2508C28.03 53.2508 27.8 53.2508 27.6 53.2208L12.37 42.6908L9.59 40.5508C9.54 40.5108 9.49 40.4808 9.43 40.4408C9.28 40.3408 9.12 40.2508 8.96 40.1608C8.65 39.9908 8.36 39.8708 8.04 39.7608C7.81 39.6908 7.55 39.6308 7.27 39.5808C6.53 39.4608 5.99 39.4908 5.39 39.6108C2.31 39.9408 0 42.6108 0 45.8508C0 47.4908 0.61 49.0408 1.72 50.2208C1.74 50.2508 1.77 50.2808 1.8 50.3008C2.21 50.7208 2.66 51.0708 3.13 51.3508L28.44 70.9208C28.58 71.0308 28.73 71.1108 28.89 71.1608L29.14 71.2608C29.92 71.5508 30.66 71.6908 31.4 71.6908C31.84 71.6908 32.3 71.6408 32.75 71.5508C32.78 71.5508 32.81 71.5408 32.84 71.5308L32.96 71.5008C42.03 69.0408 58.41 64.6008 66.19 62.5508C66.25 62.5408 66.3 62.5208 66.35 62.5008L66.85 62.3008C69.55 61.5808 71.7 61.1808 72.92 61.1808C73.76 61.1808 74.44 60.5008 74.44 59.6608V58.6708C74.46 58.5808 74.46 58.4908 74.46 58.4008L74.44 45.8008C74.51 45.4008 74.41 44.9908 74.17 44.6508V44.6808ZM71.42 58.2708C70 58.4408 68.18 58.8208 65.99 59.4108C65.94 59.4208 65.88 59.4408 65.83 59.4708L65.34 59.6608C57.52 61.7208 41.22 66.1308 32.17 68.5908L32.1 68.6108C31.46 68.7408 30.87 68.6908 30.25 68.4608L30.13 68.4108L4.9 48.9108C4.84 48.8608 4.77 48.8208 4.7 48.7808C4.45 48.6408 4.21 48.4608 3.99 48.2308C3.98 48.2208 3.97 48.2008 3.96 48.1908C3.37 47.5708 3.04 46.7408 3.04 45.8708C3.04 44.1708 4.21 42.7908 5.76 42.6408C5.82 42.6408 5.88 42.6308 5.94 42.6108C6.23 42.5508 6.54 42.5508 6.79 42.5908C6.91 42.6108 7.02 42.6308 7.11 42.6608C7.23 42.7008 7.36 42.7608 7.51 42.8408C7.6 42.8908 7.69 42.9408 7.78 43.0008C7.79 43.0008 7.8 43.0108 7.81 43.0208L10.54 45.1208C10.54 45.1208 10.58 45.1508 10.6 45.1608L26.12 55.8908C26.27 55.9908 26.43 56.0708 26.6 56.1108C27.18 56.2608 27.83 56.3108 28.59 56.2708C28.68 56.2708 28.78 56.2508 28.87 56.2308C29.58 56.0508 32.9 55.1308 38.74 53.4808L39.02 53.4008C40.29 53.0108 41.47 52.6808 42.67 52.3708L46.51 51.2808C46.63 51.2508 46.75 51.1908 46.86 51.1308C48.66 50.0708 49.77 48.0808 49.77 45.9408C49.77 43.0108 47.77 40.5308 45.01 40.0508C44.92 40.0308 44.84 40.0308 44.75 40.0308H34.9C34.2 40.0308 33.64 39.3808 33.64 38.5908C33.64 37.8008 34.21 37.1408 34.9 37.1408H45.44C46.79 37.1008 48.45 37.0708 50.53 37.0708C54.62 37.0708 57.46 38.7708 59.92 40.6008C60.57 41.0808 61.19 41.5708 61.81 42.0708C64.58 44.2608 67.43 46.5208 71.4 46.9908V56.7508L71.42 58.2008C71.42 58.2008 71.42 58.2408 71.42 58.2608V58.2708Z" fill="#E13D6F"/>
</g>
<defs>
<clipPath id="clip0_778_756">
<rect width="74.46" height="71.71" fill="white"/>
</clipPath>
</defs>
</svg>
