<svg width="104" height="105" viewBox="0 0 104 105" fill="none" xmlns="http://www.w3.org/2000/svg">
<path d="M52.2116 104.345C80.8138 104.345 104 81.1585 104 52.5564C104 23.9542 80.8138 0.767578 52.2116 0.767578C23.6095 0.767578 0.422852 23.9542 0.422852 52.5564C0.422852 81.1585 23.6095 104.345 52.2116 104.345Z" fill="#4467AD"/>
<path d="M56.216 45.4977C57.0676 44.5386 57.7658 43.5719 58.6405 42.751C61.3258 40.2191 64.5022 38.9454 68.2156 38.9761C70.2565 38.9915 72.2667 39.1372 74.2308 39.705C78.7269 41.0016 81.3355 44.1013 82.5861 48.4899C83.5221 51.7814 83.6909 55.1649 83.6986 58.5561C83.7139 65.7068 83.6756 72.8652 83.6986 80.0159C83.6986 80.6834 83.5145 80.8598 82.8546 80.8598C79.1719 80.8292 75.4815 80.8292 71.7987 80.8598C71.1465 80.8598 71.0084 80.668 71.0084 80.0542C71.0314 73.2488 71.0314 66.4434 71.0084 59.6303C71.0084 57.927 70.8933 56.2161 70.4176 54.5588C69.5353 51.5052 67.3487 49.9477 64.1493 50.1165C59.776 50.3466 57.505 52.5103 56.9525 56.9526C56.8221 58.0114 56.7531 59.0779 56.7607 60.1443C56.7607 66.7656 56.7608 73.3869 56.7761 80.0082C56.7761 80.668 56.615 80.8598 55.9398 80.8598C52.2263 80.8292 48.5129 80.8292 44.7995 80.8598C44.201 80.8598 44.0322 80.7064 44.0322 80.1003C44.0476 66.9958 44.0476 53.8836 44.0322 40.7791C44.0322 40.127 44.247 39.9812 44.8608 39.9812C48.3825 40.0042 51.9118 40.0119 55.4334 39.9812C56.0856 39.9812 56.2467 40.1884 56.239 40.8022C56.2007 42.3673 56.2237 43.9325 56.2237 45.5053L56.216 45.4977Z" fill="#FEFEFE"/>
<path d="M36.0225 60.4741C36.0225 66.9573 36.0148 73.4405 36.0378 79.9237C36.0378 80.6449 35.8613 80.8597 35.1171 80.852C31.4344 80.8136 27.7516 80.8213 24.0612 80.852C23.4704 80.852 23.2939 80.7062 23.2939 80.1001C23.3093 66.9726 23.3093 53.8451 23.2939 40.7099C23.2939 40.1652 23.4244 39.9734 23.9998 39.9734C27.7363 39.9964 31.4728 40.0041 35.2092 39.9734C35.9304 39.9734 36.0225 40.2419 36.0225 40.8634C36.0072 47.4003 36.0148 53.9372 36.0148 60.4741H36.0225Z" fill="#FEFEFE"/>
<path d="M37.0349 26.9688C37.0349 31.0428 33.7358 34.3573 29.6694 34.3573C25.6567 34.3573 22.3269 31.0428 22.3116 27.0301C22.2962 22.9791 25.626 19.6416 29.6848 19.6416C33.7128 19.6416 37.0272 22.9484 37.0349 26.9611V26.9688Z" fill="#FEFEFE"/>
</svg>
