<svg width="96" height="96" viewBox="0 0 96 96" fill="none" xmlns="http://www.w3.org/2000/svg">
<g clip-path="url(#clip0_818_411)">
<path d="M2.90445 93.1732C2.9204 94.7543 4.21296 96.0159 5.79274 96L93.1757 94.9299C94.7555 94.914 96.0162 93.6044 96.0002 92.0233C95.9842 90.4422 94.6917 89.1805 93.1119 89.1964L5.72891 90.2665C4.14913 90.2825 2.88849 91.5761 2.90445 93.1572V93.1732Z" fill="#67686B"/>
<path d="M39.91 83.8623H39.9738L53.1387 83.6387C55.8993 83.5908 58.0376 80.9237 57.9898 77.5538L57.5589 27.5495C57.5589 25.7129 56.8727 24.02 55.7238 22.902C54.8461 22.0396 53.7132 21.5605 52.5642 21.5924L39.3993 21.816C36.6387 21.8639 34.5164 24.5311 34.5323 27.9009L34.9791 77.9052C34.9791 79.7259 35.6653 81.4188 36.8142 82.5527C37.6759 83.3991 38.777 83.8623 39.91 83.8623ZM39.4632 25.9844L52.6281 25.7608C52.7876 25.7768 53.3781 26.3837 53.3781 27.5815L53.8089 77.5858C53.8089 78.8315 53.2025 79.4544 53.0589 79.4544L39.894 79.6779C39.7344 79.6779 39.144 79.0711 39.144 77.8573L38.6972 27.853C38.6972 26.6072 39.3036 25.9844 39.4472 25.9844H39.4632Z" fill="#67686B"/>
<path d="M74.505 83.6706H74.5848L87.7497 83.3672C90.5422 83.3033 92.6326 80.0612 92.6007 75.829L92.1539 7.41041C92.1539 4.82316 91.3241 2.5074 89.9677 1.1978C89.1539 0.383297 88.1965 0 87.1433 0L73.9784 0.303444C71.1858 0.367327 69.0954 3.60938 69.1273 7.85759L69.5741 76.2762C69.5741 78.8474 70.4039 81.1792 71.7443 82.4888C72.5422 83.2713 73.4837 83.6706 74.505 83.6706ZM74.2177 4.4718L87.0794 4.16836C87.3667 4.43986 87.9731 5.52587 87.989 7.41041L88.4358 75.829C88.4358 77.6976 87.8294 78.8954 87.5262 79.1828L74.6645 79.4863C74.3773 79.2148 73.7709 78.1288 73.755 76.2442L73.3082 7.82565C73.3082 5.95708 73.8986 4.75927 74.2177 4.4718Z" fill="#67686B"/>
<path d="M21.1918 39.0644C20.2982 38.202 19.1812 37.7229 18.0323 37.7548L4.86737 37.9784C2.10674 38.0103 -0.0315623 40.6934 0.00035262 44.0632L0.303544 78.0809C0.303544 79.9015 0.989714 81.5944 2.13865 82.7283C3.00035 83.5748 4.10142 84.0379 5.2344 84.0379C5.25035 84.0379 5.28227 84.0379 5.29822 84.0379L18.4631 83.8144C21.2238 83.7664 23.3461 81.0993 23.3301 77.7295L23.027 43.7119C23.027 41.8752 22.3408 40.1823 21.1918 39.0644ZM18.3993 79.646L5.2344 79.8696C5.07482 79.8536 4.4844 79.2627 4.4844 78.0489L4.1812 44.0313C4.1812 42.7856 4.78759 42.1627 4.9312 42.1467L18.0961 41.9232C18.2716 41.9551 18.8461 42.562 18.8461 43.7438L19.1493 77.7615C19.1493 79.0072 18.5429 79.63 18.3993 79.63V79.646Z" fill="#67686B"/>
</g>
<defs>
<clipPath id="clip0_818_411">
<rect width="96" height="96" fill="white"/>
</clipPath>
</defs>
</svg>
