<svg width="122" height="122" viewBox="0 0 122 122" fill="none" xmlns="http://www.w3.org/2000/svg">
<circle cx="61" cy="61" r="61" fill="#F3226E"/>
<path d="M84.0143 34.0034H38.6572C37.9115 34.0034 37.2959 34.6063 37.2959 35.3471V65.7256C37.2959 66.4663 37.9029 67.0779 38.6572 67.0779H84.0143C84.7599 67.0779 85.3669 66.4749 85.3669 65.7256V35.3471C85.3669 34.6063 84.7599 34.0034 84.0143 34.0034ZM82.6616 64.3733H40.0099V36.6993H82.6529V64.3733H82.6616Z" fill="white" stroke="white" stroke-miterlimit="10"/>
<path d="M103.54 81.3412C103.54 81.3412 103.532 81.2809 103.523 81.2464C103.514 81.1948 103.497 81.1431 103.48 81.1C103.471 81.0742 103.462 81.0397 103.445 81.0139C103.419 80.9622 103.393 80.9105 103.358 80.8588C103.35 80.8416 103.341 80.8244 103.324 80.7985C103.28 80.7296 103.228 80.6694 103.168 80.6091C103.15 80.5918 103.133 80.5832 103.124 80.566C103.081 80.5229 103.037 80.4885 102.985 80.454C102.959 80.4368 102.933 80.4196 102.907 80.4023C102.873 80.3851 102.847 80.3593 102.812 80.3421L92.5458 75.2948V29.7743C92.5458 29.0336 91.9388 28.4307 91.1931 28.4307H31.4772C30.7229 28.4307 30.1246 29.0336 30.1246 29.7743V75.3206L20.1705 80.3593C20.1705 80.3593 20.1185 80.3937 20.0838 80.411C20.0578 80.4282 20.0318 80.4454 19.9971 80.4626C19.9537 80.4971 19.9104 80.5315 19.867 80.566C19.8497 80.5832 19.8323 80.6004 19.815 80.6177C19.763 80.678 19.7023 80.7383 19.6589 80.8072C19.6589 80.8072 19.6589 80.8244 19.6416 80.833C19.6069 80.8933 19.5722 80.9536 19.5375 81.0225C19.5289 81.0483 19.5202 81.0828 19.5028 81.1086C19.4855 81.1603 19.4682 81.2034 19.4595 81.255C19.4595 81.2895 19.4508 81.3153 19.4421 81.3498C19.4335 81.4015 19.4248 81.4618 19.4248 81.5134C19.4248 81.5307 19.4248 81.5479 19.4248 81.5651V85.2257C19.4248 85.9664 20.0318 86.5694 20.7775 86.5694H102.205C102.959 86.5694 103.558 85.9664 103.558 85.2257V81.5651C103.558 81.5651 103.558 81.5307 103.558 81.5134C103.558 81.4531 103.558 81.4015 103.54 81.3498V81.3412ZM32.8386 31.1266H89.8318V74.8038H32.8386V31.1266ZM31.8067 77.4997H90.8723L96.4043 80.2215H26.4395L31.8067 77.4997ZM100.852 83.882H22.1474V82.9174H100.852V83.882Z" fill="white" stroke="white" stroke-miterlimit="10"/>
<path d="M61.8773 67.8357C60.2645 67.8357 58.9639 69.1363 58.9639 70.7383C58.9639 72.3404 60.2732 73.6323 61.8773 73.6323C63.4814 73.6323 64.7907 72.3318 64.7907 70.7383C64.7907 69.1449 63.4814 67.8357 61.8773 67.8357ZM61.8773 72.0131C61.1663 72.0131 60.5853 71.436 60.5853 70.7297C60.5853 70.0234 61.1663 69.4463 61.8773 69.4463C62.5883 69.4463 63.1692 70.0234 63.1692 70.7297C63.1692 71.436 62.5883 72.0131 61.8773 72.0131Z" fill="white" stroke="white" stroke-miterlimit="10"/>
</svg>
