<svg width="114" height="141" viewBox="0 0 114 141" fill="none" xmlns="http://www.w3.org/2000/svg">
<g clip-path="url(#clip0_660_443)">
<path d="M89.2057 49.5593C102.875 49.5593 114 38.4446 114 24.7888C114 11.133 102.875 0 89.2057 0C75.5367 0 64.4112 11.1147 64.4112 24.7705C64.4112 27.9148 65.015 30.9129 66.0946 33.6733L38.903 52.3928C34.8956 49.6142 30.0465 47.9872 24.8131 47.9872C11.1441 47.9872 0.0185547 59.1019 0.0185547 72.7577C0.0185547 86.4135 11.1441 97.5282 24.8131 97.5282C30.5588 97.5282 35.8471 95.5356 40.0558 92.245L65.3261 109.612C64.7405 111.714 64.4112 113.926 64.4112 116.211C64.4112 129.867 75.5367 140.982 89.2057 140.982C102.875 140.982 114 129.867 114 116.211C114 102.555 102.875 91.4407 89.2057 91.4407C83.2221 91.4407 77.7142 93.5796 73.4324 97.126L48.528 80.0152C49.2234 77.7301 49.6076 75.2987 49.6076 72.776C49.6076 69.7596 49.0404 66.8713 48.0523 64.2023L75.4269 45.373C79.3794 48.0237 84.1187 49.5776 89.2057 49.5776V49.5593ZM89.2057 6.1058C99.5078 6.1058 107.907 14.4784 107.907 24.7888C107.907 35.0992 99.5261 43.4718 89.2057 43.4718C78.8853 43.4718 70.5046 35.0992 70.5046 24.7888C70.5046 14.4784 78.8853 6.1058 89.2057 6.1058ZM24.7948 91.4407C14.4927 91.4407 6.09368 83.0681 6.09368 72.7577C6.09368 62.4473 14.4744 54.0747 24.7948 54.0747C35.1152 54.0747 43.4959 62.4473 43.4959 72.7577C43.4959 83.0681 35.1152 91.4407 24.7948 91.4407ZM89.1874 97.5282C99.4895 97.5282 107.889 105.901 107.889 116.211C107.889 126.522 99.5078 134.894 89.1874 134.894C78.867 134.894 70.4863 126.522 70.4863 116.211C70.4863 105.901 78.867 97.5282 89.1874 97.5282ZM69.1871 101.605C68.6564 102.336 68.1624 103.086 67.7049 103.872L44.3926 87.8577C44.9415 87.1447 45.4539 86.3952 45.9296 85.6274L69.1871 101.623V101.605ZM45.1977 58.718C44.6853 57.9685 44.1181 57.2555 43.5325 56.5792L68.9858 39.0844C69.5165 39.8156 70.0837 40.5286 70.6876 41.205L45.216 58.7363L45.1977 58.718Z" fill="#E13D6F"/>
</g>
<defs>
<clipPath id="clip0_660_443">
<rect width="114" height="141" fill="white"/>
</clipPath>
</defs>
</svg>
