<svg width="100" height="72" viewBox="0 0 100 72" fill="none" xmlns="http://www.w3.org/2000/svg">
<g clip-path="url(#clip0_643_439)">
<path d="M25.6979 29.2813L2.91263 47.46C2.45523 47.8293 2.19043 48.3772 2.19043 48.961V70.0582C2.19043 71.1304 3.0691 71.9881 4.15239 71.9881H26.9256C28.0089 71.9881 28.8756 71.1185 28.8756 70.0582V30.7942C28.8756 30.0437 28.4422 29.3647 27.7682 29.043C27.0941 28.7214 26.2757 28.8167 25.6979 29.2813ZM24.9757 68.1284H6.10232V49.9021L24.9757 34.8445V68.1284Z" fill="#272525"/>
<path d="M42.0556 17.5116L36.1817 21.1449C35.6039 21.5023 35.2549 22.1218 35.2549 22.7889V70.0582C35.2549 71.1304 36.1336 71.9881 37.2168 71.9881H60.0021C61.0854 71.9881 61.9641 71.1185 61.9641 70.0582V36.6075C61.9641 36.1072 61.7715 35.6307 61.4224 35.2614L44.5231 17.8094C43.8851 17.1542 42.862 17.0232 42.0676 17.5116H42.0556ZM58.0402 68.1284H39.1668V23.861L42.7778 21.6333L58.0402 37.3938V68.1403V68.1284Z" fill="#272525"/>
<path d="M83.8346 21.7763L68.8972 36.5599C68.6444 36.8101 68.5 37.1674 68.5 37.5248V70.6539C68.5 71.4044 69.1139 72.0119 69.8722 72.0119H84.8096C85.5679 72.0119 86.1818 71.4044 86.1818 70.6539V22.7293C86.1818 22.1813 85.8447 21.681 85.3392 21.4785C84.8216 21.2641 84.2318 21.3832 83.8467 21.7763H83.8346ZM83.4374 69.2839H71.2443V38.0728L83.4374 26.0053V69.2839Z" fill="#272525"/>
<path d="M96.6778 0.42866C85.9051 8.26718 75.1323 16.1057 64.3596 23.9442C58.0885 17.4518 51.8295 10.9594 45.5584 4.45513C44.8964 3.77611 43.5844 3.53786 42.7659 4.09775C28.8517 13.6874 14.9374 23.2652 1.02306 32.843C-1.3963 34.5107 0.90269 38.4538 3.34612 36.7741C16.779 27.5418 30.1998 18.2976 43.6326 9.05341C49.9157 15.5577 56.1868 22.062 62.4699 28.5782C63.1078 29.2453 64.4559 29.5193 65.2623 28.9356C76.5166 20.7516 87.7587 12.5557 99.0129 4.37175C101.372 2.65632 99.0852 -1.29867 96.6899 0.440573L96.6778 0.42866Z" fill="#272525"/>
</g>
<defs>
<clipPath id="clip0_643_439">
<rect width="100" height="72" fill="white"/>
</clipPath>
</defs>
</svg>
