<svg width="91" height="77" viewBox="0 0 91 77" fill="none" xmlns="http://www.w3.org/2000/svg">
<path d="M2.45637 77H88.5151C89.8861 77 90.9714 75.8849 90.9714 74.541V16.4694C90.9714 15.0969 89.8575 14.0104 88.5151 14.0104H48.5276L40.3016 1.14371C39.8446 0.42889 39.0734 0 38.2166 0H2.45637C1.11394 0 0 1.11511 0 2.45897V74.541C0 75.9135 1.11394 77 2.45637 77ZM4.94131 4.94653H36.8741L43.215 14.811H4.94131V4.94653ZM4.94131 27.0486V19.0427H47.2137C47.4422 19.0427 47.6422 19.0141 47.8136 18.9569H86.0872V72.0535H4.94131V27.0201V27.0486Z" fill="#272525"/>
</svg>
