<svg width="121" height="121" viewBox="0 0 121 121" fill="none" xmlns="http://www.w3.org/2000/svg">
<circle cx="60.5" cy="60.5" r="60.5" fill="#F3226E"/>
<g clip-path="url(#clip0_818_410)">
<path d="M81.4661 25.5996C81.2267 24.973 80.5251 24.6679 79.8977 24.907C79.2704 25.1461 78.965 25.8469 79.2043 26.4735L82.7042 35.5099C82.7042 35.5099 82.7373 35.5676 82.7538 35.6006L80.1784 38.173L77.0169 29.755C76.7858 29.1284 76.0842 28.8151 75.4568 29.0459C74.8295 29.285 74.5158 29.9776 74.7469 30.6042L78.2468 39.9209C78.2633 39.9621 78.2881 39.9951 78.3129 40.0363L72.1963 46.1375C67.0538 41.4132 60.1943 38.5193 52.6745 38.5193C36.7764 38.5193 23.8252 51.4472 23.8252 67.3516C23.8252 83.2559 36.7764 96.1838 52.691 96.1838C68.6056 96.1838 81.5569 83.2477 81.5569 67.3516C81.5569 59.8405 78.6596 52.989 73.9298 47.8525L79.3612 42.4273C79.551 42.6994 79.8565 42.8891 80.2114 42.9303L91.586 44.1753C91.6273 44.1753 91.6768 44.1753 91.7181 44.1753C92.3289 44.1753 92.849 43.7135 92.9233 43.0952C92.9976 42.4273 92.5188 41.8337 91.8502 41.7595L81.1854 40.5887L84.3139 37.4639C84.3634 37.4804 84.4129 37.4887 84.4707 37.4969L95.8371 38.7419C95.8784 38.7419 95.9279 38.7419 95.9692 38.7419C96.58 38.7419 97.1 38.2802 97.1743 37.6618C97.2486 36.994 96.7698 36.4003 96.1012 36.3261L86.493 35.2708L92.3289 29.4417C92.7994 28.9717 92.7994 28.205 92.3289 27.735C91.8584 27.265 91.0908 27.265 90.6203 27.735L84.6358 33.7125L81.4826 25.5748L81.4661 25.5996ZM79.1301 67.3516C79.1301 81.912 67.2684 93.7598 52.691 93.7598C38.1137 93.7598 26.2438 81.912 26.2438 67.3516C26.2438 52.7911 38.1054 40.935 52.691 40.935C59.5422 40.935 65.7991 43.5569 70.5042 47.8442L64.7921 53.5497C61.5563 50.7134 57.3218 48.9903 52.691 48.9903C42.5628 48.9903 34.3166 57.2269 34.3166 67.3433C34.3166 77.4598 42.5628 85.6964 52.691 85.6964C62.8193 85.6964 71.0655 77.4598 71.0655 67.3433C71.0655 62.7179 69.3403 58.4883 66.5007 55.2563L72.2128 49.5509C76.5051 54.2505 79.1301 60.4918 79.1301 67.3433V67.3516ZM51.8326 68.209C52.0719 68.4481 52.3774 68.5635 52.691 68.5635C53.0047 68.5635 53.3101 68.4481 53.5495 68.209L57.2805 64.4823C57.8088 65.3151 58.1142 66.2962 58.1142 67.3516C58.1142 70.3362 55.6791 72.7602 52.691 72.7602C49.7029 72.7602 47.2761 70.3362 47.2761 67.3516C47.2761 64.3669 49.7029 61.9429 52.691 61.9429C53.7476 61.9429 54.7299 62.248 55.5636 62.7757L51.8326 66.5023C51.3621 66.9723 51.3621 67.7391 51.8326 68.209ZM57.3053 61.036C56.0093 60.0878 54.4162 59.5272 52.691 59.5272C48.3657 59.5272 44.8493 63.0395 44.8493 67.3598C44.8493 71.6801 48.3657 75.1924 52.691 75.1924C57.0164 75.1924 60.5328 71.6801 60.5328 67.3598C60.5328 65.6366 59.9632 64.0454 59.014 62.7509L64.7838 56.9878C67.1859 59.7745 68.6386 63.4023 68.6386 67.3598C68.6386 76.1488 61.482 83.2971 52.691 83.2971C43.9 83.2971 36.7352 76.1488 36.7352 67.3598C36.7352 58.5708 43.8918 51.4307 52.691 51.4307C56.6532 51.4307 60.2769 52.8818 63.0751 55.2811L57.3053 61.0442V61.036Z" fill="white" stroke="white" stroke-width="2" stroke-miterlimit="10"/>
</g>
<defs>
<clipPath id="clip0_818_410">
<rect width="75" height="73" fill="white" transform="translate(23 24)"/>
</clipPath>
</defs>
</svg>
