<svg width="188" height="127" viewBox="0 0 188 127" fill="none" xmlns="http://www.w3.org/2000/svg">
<path d="M188 89.4892C188 68.8104 170.323 51.9784 148.589 51.9784C147.18 51.9784 145.734 52.0535 144.306 52.2036C144.381 51.0777 144.419 49.9518 144.419 48.8822C144.419 21.9173 122.459 0 95.484 0C83.1047 0 71.289 4.6349 62.2158 13.0415C53.199 21.3918 47.695 32.6882 46.6994 44.8853C44.8961 44.6602 43.0739 44.5288 41.2894 44.5288C18.522 44.5288 0 63.0309 0 85.755C0 108.479 18.4281 126.869 41.0264 126.981H82.2594C83.2926 126.981 84.2882 126.568 85.002 125.818C85.7158 125.067 86.0915 124.054 86.0352 123.022C86.0352 122.984 86.0352 122.966 86.0352 122.928V92.2101C86.0352 90.1272 84.3445 88.4384 82.2594 88.4384H76.9808L93.4177 68.2287C93.8121 67.7408 94.1878 67.7408 94.5823 68.2287L111.019 88.4384H105.741C103.655 88.4384 101.965 90.1272 101.965 92.2101V122.947C101.965 122.947 101.965 123.116 101.965 123.21C101.965 125.292 103.655 126.981 105.741 126.981H148.796C170.417 126.869 188 110.037 188 89.4705V89.4892ZM148.739 119.457H109.516V96.0006H113.067C117.481 96.0006 119.134 93.5424 119.641 92.4916C120.13 91.4595 120.975 88.7386 118.364 85.5299L100.443 63.5C98.809 61.4734 96.4608 60.3288 94 60.3288C91.5392 60.3288 89.191 61.4922 87.5568 63.5L69.6359 85.5299C67.0248 88.7386 67.8701 91.4783 68.3585 92.4916C68.8657 93.5424 70.5 96.0006 74.9333 96.0006H78.4836V119.475H41.1015C22.5983 119.363 7.55156 104.257 7.55156 85.7738C7.55156 67.2905 22.6735 52.0535 41.2894 52.0535C42.7734 52.0535 44.2762 52.1473 45.7602 52.3537L49.6487 52.8604C50.6819 52.9917 51.715 52.7103 52.504 52.0535C53.3117 51.4155 53.8189 50.4585 53.8941 49.4264L54.2134 45.5233C55.04 35.2027 59.6986 25.6327 67.3441 18.5584C75.0084 11.4465 85.002 7.54344 95.484 7.54344C118.308 7.54344 136.867 26.083 136.867 48.8822C136.867 49.8017 136.83 50.7587 136.773 51.7345L136.473 56.1442C136.398 57.2513 136.811 58.3397 137.619 59.109C138.426 59.8784 139.516 60.2725 140.624 60.1411L145.039 59.6908C146.222 59.5594 147.424 59.5031 148.589 59.5031C166.153 59.5031 180.467 72.9575 180.467 89.4705C180.467 105.983 166.247 119.344 148.758 119.438L148.739 119.457Z" fill="#E13D6F"/>
</svg>
