<svg width="90" height="100" viewBox="0 0 90 100" fill="none" xmlns="http://www.w3.org/2000/svg">
<g clip-path="url(#clip0_643_430)">
<path d="M32.0403 22.26C34.2303 22.26 36.0103 20.48 36.0103 18.29V3.97C36.0103 1.78 34.2303 0 32.0403 0C29.8503 0 28.0703 1.78 28.0703 3.97V18.28C28.0703 20.47 29.8503 22.25 32.0403 22.25V22.26ZM30.4503 3.98C30.4503 3.1 31.1603 2.39 32.0403 2.39C32.9203 2.39 33.6303 3.1 33.6303 3.98V18.29C33.6303 19.17 32.9203 19.88 32.0403 19.88C31.1603 19.88 30.4503 19.17 30.4503 18.29V3.97V3.98Z" fill="#272525"/>
<path d="M28.0596 60.1C28.0596 62.29 29.8396 64.07 32.0296 64.07C34.2196 64.07 35.9996 62.29 35.9996 60.1V45.79C35.9996 43.6 34.2196 41.81 32.0296 41.81C29.8396 41.81 28.0596 43.59 28.0596 45.79V60.1ZM30.4396 45.79C30.4396 44.91 31.1496 44.2 32.0296 44.2C32.9096 44.2 33.6196 44.91 33.6196 45.79V60.1C33.6196 60.98 32.9096 61.69 32.0296 61.69C31.1496 61.69 30.4396 60.98 30.4396 60.1V45.79Z" fill="#272525"/>
<path d="M51.88 8.21997C50.82 8.21997 49.82 8.62997 49.07 9.37997L38.95 19.5C38.2 20.25 37.79 21.25 37.79 22.31C37.79 23.37 38.2 24.37 38.95 25.12C39.7 25.87 40.7 26.28 41.76 26.28C42.82 26.28 43.82 25.87 44.57 25.12L54.69 15C55.44 14.25 55.85 13.25 55.85 12.19C55.85 11.13 55.44 10.13 54.69 9.37997C53.94 8.62997 52.94 8.21997 51.88 8.21997ZM40.64 23.44C40.34 23.14 40.18 22.74 40.18 22.32C40.18 21.9 40.35 21.5 40.64 21.2L50.76 11.08C51.06 10.78 51.46 10.62 51.88 10.62C52.3 10.62 52.7 10.79 53.01 11.09C53.31 11.39 53.47 11.79 53.47 12.21C53.47 12.63 53.3 13.03 53.01 13.33L42.89 23.45C42.29 24.05 41.24 24.05 40.64 23.45V23.44Z" fill="#272525"/>
<path d="M26.2797 41.76C26.2797 40.7 25.8697 39.7 25.1197 38.95C23.5697 37.4 21.0497 37.4 19.4997 38.95L9.37973 49.07C8.62973 49.82 8.21973 50.82 8.21973 51.88C8.21973 52.94 8.62973 53.94 9.37973 54.69C10.1297 55.44 11.1297 55.85 12.1897 55.85C13.2497 55.85 14.2497 55.44 14.9997 54.69L25.1197 44.57C25.8697 43.82 26.2797 42.82 26.2797 41.76ZM23.4297 42.88L13.3097 53C12.7097 53.6 11.6597 53.6 11.0597 53C10.7597 52.7 10.5997 52.3 10.5997 51.88C10.5997 51.46 10.7697 51.06 11.0697 50.76L21.1897 40.64C21.4997 40.33 21.9097 40.18 22.3097 40.18C22.7097 40.18 23.1197 40.34 23.4297 40.64C23.7297 40.94 23.8897 41.34 23.8897 41.76C23.8897 42.18 23.7197 42.58 23.4297 42.88Z" fill="#272525"/>
<path d="M41.8096 32.04C41.8096 34.23 43.5896 36.01 45.7796 36.01H60.0896C62.2796 36.01 64.0596 34.23 64.0596 32.04C64.0596 29.85 62.2796 28.07 60.0896 28.07H45.7796C43.5896 28.07 41.8096 29.85 41.8096 32.04ZM61.6796 32.04C61.6796 32.92 60.9696 33.63 60.0896 33.63H45.7796C44.8996 33.63 44.1896 32.92 44.1896 32.04C44.1896 31.16 44.8996 30.45 45.7796 30.45H60.0896C60.9696 30.45 61.6796 31.16 61.6796 32.04Z" fill="#272525"/>
<path d="M3.97 36.01H18.28C20.47 36.01 22.25 34.23 22.25 32.04C22.25 29.85 20.47 28.07 18.28 28.07H3.97C1.78 28.07 0 29.85 0 32.04C0 34.23 1.78 36.01 3.97 36.01ZM3.97 30.45H18.28C19.16 30.45 19.87 31.16 19.87 32.04C19.87 32.92 19.16 33.63 18.28 33.63H3.97C3.09 33.63 2.38 32.92 2.38 32.04C2.38 31.16 3.09 30.45 3.97 30.45Z" fill="#272525"/>
<path d="M19.4997 25.12C20.2497 25.87 21.2497 26.28 22.3097 26.28C23.3697 26.28 24.3697 25.87 25.1197 25.12C25.8697 24.37 26.2797 23.37 26.2797 22.31C26.2797 21.25 25.8697 20.25 25.1197 19.5L14.9997 9.38003C13.4497 7.83003 10.9297 7.83003 9.37973 9.38003C8.62973 10.13 8.21973 11.13 8.21973 12.19C8.21973 13.25 8.62973 14.25 9.37973 15L19.4997 25.12ZM11.0697 11.07C11.3797 10.76 11.7897 10.61 12.1897 10.61C12.5897 10.61 12.9997 10.77 13.3097 11.07L23.4297 21.19C23.7297 21.49 23.8897 21.89 23.8897 22.31C23.8897 22.73 23.7197 23.13 23.4297 23.43C22.8297 24.03 21.7797 24.03 21.1797 23.43L11.0697 13.32C10.7697 13.02 10.6097 12.62 10.6097 12.2C10.6097 11.78 10.7797 11.38 11.0797 11.07H11.0697Z" fill="#272525"/>
<path d="M88.9499 60.21C88.8799 59.65 88.5199 59.16 87.9999 58.94L41.4499 38.8C40.9299 38.57 40.3199 38.65 39.8599 38.99C39.3999 39.33 39.1699 39.89 39.2399 40.46L45.6199 90.78C45.6899 91.34 46.0599 91.82 46.5799 92.04C47.0999 92.26 47.6999 92.19 48.1499 91.85L59.8099 83.09L72.0199 99.34C72.3299 99.76 72.8099 99.97 73.2899 99.97C73.6199 99.97 73.9599 99.87 74.2399 99.65L88.5599 88.89C88.8999 88.64 89.1199 88.26 89.1799 87.84C89.2399 87.42 89.1299 87 88.8799 86.66L76.6699 70.41L88.3299 61.65C88.7799 61.31 89.0199 60.75 88.9499 60.19V60.21ZM73.4899 68.84C73.1499 69.09 72.9299 69.47 72.8699 69.89C72.8099 70.31 72.9199 70.73 73.1699 71.07L85.3799 87.32L73.5999 96.17L61.3899 79.92C61.0799 79.5 60.5999 79.28 60.1199 79.28C59.7899 79.28 59.4499 79.38 59.1699 79.6L48.4299 87.67L42.7499 42.83L84.2299 60.77L73.4899 68.84Z" fill="#272525"/>
</g>
<defs>
<clipPath id="clip0_643_430">
<rect width="89.2" height="99.97" fill="white"/>
</clipPath>
</defs>
</svg>
