<svg width="121" height="122" viewBox="0 0 121 122" fill="none" xmlns="http://www.w3.org/2000/svg">
<ellipse cx="60.5" cy="61" rx="60.5" ry="61" fill="#F3226E"/>
<path d="M71.0737 22.4607H48.9269C43.2113 22.4607 38.5507 27.1418 38.5507 32.8826V35.2877H26.6608C22.1379 35.2969 18.459 38.992 18.459 43.5349V84.3012C18.459 88.8441 22.1379 92.5392 26.6608 92.5392H93.3305C97.8535 92.5392 101.532 88.8441 101.532 84.3012V43.5349C101.532 38.992 97.8535 35.2969 93.3305 35.2969H81.4406V32.8918C81.4406 27.1418 76.7893 22.4699 71.0645 22.4699L71.0737 22.4607ZM52.1012 88.9362H49.7526V37.831H52.1012V88.9362ZM66.2113 88.9362H53.7801V37.831H66.2113V88.9362V88.9362ZM70.2388 88.9362H67.8902V37.831H70.2388V88.9362ZM71.5507 35.2969H48.4406V32.8918C48.4406 32.6246 48.6516 32.4035 48.9269 32.4035H71.0737C71.3397 32.4035 71.5599 32.6246 71.5599 32.8918V35.2969H71.5507ZM93.3305 38.6787C96.0003 38.6787 98.1654 40.8534 98.1654 43.5349V84.3012C98.1654 86.9827 96.0003 89.1574 93.3305 89.1574H71.9269V38.6787H73.2388C74.1654 38.6787 74.9269 37.9231 74.9269 36.9832V32.8826C74.9269 30.754 73.2021 29.0124 71.0737 29.0124H48.9269C46.7984 29.0124 45.0737 30.7448 45.0737 32.8826V36.9832C45.0737 37.9139 45.826 38.6787 46.7526 38.6787H48.0645V89.1574H26.6608C23.9911 89.1574 21.826 86.9827 21.826 84.3012V43.5349C21.826 40.8534 23.9911 38.6787 26.6608 38.6787H40.2296C41.1562 38.6787 41.9177 37.9231 41.9177 36.9832V32.8826C41.9177 29.0032 45.0553 25.8425 48.9177 25.8425H71.0645C74.9269 25.8425 78.0645 29.0032 78.0645 32.8826V36.9832C78.0645 37.9139 78.8168 38.6787 79.7526 38.6787H93.3214H93.3305Z" fill="white" stroke="white" stroke-miterlimit="10"/>
</svg>
