<svg width="131" height="88" viewBox="0 0 131 88" fill="none" xmlns="http://www.w3.org/2000/svg">
<path d="M66.7196 30.709V30.7633H83.4672C84.3886 30.7633 85.1338 30.0167 85.1338 29.0935V1.66985C85.1338 0.746683 84.3886 0 83.4672 0H47.5465C46.6251 0 45.8799 0.746683 45.8799 1.66985V29.0935C45.8799 30.0167 46.6251 30.7633 47.5465 30.7633H64.2941V30.709H66.7331H66.7196ZM49.2131 27.4236V3.35329H81.787V27.4101H49.2131V27.4236Z" fill="#67686B"/>
<path d="M39.2675 86.3302V58.9201C39.2675 57.997 38.5222 57.2367 37.6008 57.2367H1.66663C0.745242 57.2367 0 57.9834 0 58.9201V86.3302C0 87.2534 0.745242 88 1.66663 88H37.6008C38.5222 88 39.2675 87.2534 39.2675 86.3302ZM35.9207 84.6603H3.34681V60.59H35.9207V84.6603Z" fill="#67686B"/>
<path d="M47.5328 57.2367C46.6115 57.2367 45.8662 57.9834 45.8662 58.9201V86.3302C45.8662 87.2534 46.6115 88 47.5328 88H83.4535C84.3749 88 85.1201 87.2534 85.1201 86.3302V58.9201C85.1201 57.997 84.3749 57.2367 83.4535 57.2367H47.5328ZM81.7869 84.6468H49.213V60.5764H81.7869V84.6468Z" fill="#67686B"/>
<path d="M93.3991 57.2367C92.4777 57.2367 91.7324 57.9834 91.7324 58.9201V86.3302C91.7324 87.2534 92.4777 88 93.3991 88H129.32C130.241 88 130.986 87.2534 130.986 86.3302V58.9201C130.986 57.997 130.241 57.2367 129.32 57.2367H93.3991ZM127.653 84.6468H95.0792V60.5764H127.653V84.6468Z" fill="#67686B"/>
<path d="M20.6094 54.9015H23.0483V45.7784H64.2806V54.9015H66.7195V45.7784H107.952V54.9015H110.391V43.3347H66.7195V30.7633V30.709H64.2806V30.7633V43.3347H20.6094V54.9015Z" fill="#67686B"/>
</svg>
