<svg width="97" height="100" viewBox="0 0 97 100" fill="none" xmlns="http://www.w3.org/2000/svg">
<g clip-path="url(#clip0_643_426)">
<path d="M89.3002 65.9369C91.1865 60.6878 91.1583 55.158 90.8768 49.6702C90.4967 42.3299 89.8774 35.0036 89.2158 27.6913C88.7935 23.0176 85.387 19.8457 81.1782 19.8457C79.6439 19.8457 78.2081 20.2948 76.9694 21.0667C78.4474 15.9018 76.4908 12.6597 69.4808 10.1615C69.4526 10.1615 69.4245 10.1194 69.4245 10.0913C69.5652 6.34393 68.6503 4.05621 65.3142 2.14744C61.9218 0.210594 58.6138 -0.0280028 55.6015 3.83165C55.5734 3.85972 54.7851 4.85621 54.771 4.82814C54.3206 2.72287 52.561 1.40358 51.1534 0.786032C48.7745 -0.252564 46.5927 -0.252564 44.6501 0.757962C44.0448 0.912348 43.4255 1.13691 42.792 1.43165C41.3985 2.10533 39.7093 3.4948 39.3293 5.6141C39.3293 5.65621 38.4847 4.67375 38.4706 4.64568C35.3034 0.898313 32.0096 1.26323 28.7016 3.34042C25.45 5.37551 24.6195 7.70533 24.9151 11.4387C24.9151 11.4667 24.901 11.5088 24.8729 11.5229C18.4963 14.0773 16.4552 17.1088 17.4969 21.572C16.3004 20.9545 14.9491 20.6316 13.5414 20.6878C9.34668 20.8562 6.0669 24.1545 5.8276 28.8422C5.44754 36.1825 5.10971 43.5229 5.02525 50.8632C4.95487 56.3509 5.15194 61.8808 7.23523 67.0457L0 79.0738L34.9797 100L42.9328 86.779C44.7346 86.3018 46.48 85.586 48.1974 84.6317C50.2243 85.7545 52.2936 86.5685 54.405 87.0457L62.879 99.9439L97.0141 77.6702L89.3143 65.9369H89.3002ZM65.7505 17.4878C67.3975 14.765 69.0866 14.0352 71.2403 15.0878C73.5066 16.2106 74.126 17.979 72.5494 20.8281C71.2403 23.2141 69.889 25.558 68.5236 27.9159C66.947 25.5159 65.3846 23.1159 63.808 20.7299C64.4555 19.6492 65.1171 18.5685 65.7646 17.4878H65.7505ZM72.6057 30.2597C72.5353 31.172 72.465 32.1545 72.3664 33.3194C72.3664 33.3895 72.2679 33.4176 72.2257 33.3615C71.7471 32.7018 71.3811 32.2246 71.0714 31.7895C71.5218 31.172 72.0145 30.6246 72.6057 30.2597ZM57.5018 7.94393C58.9798 5.50182 60.7394 4.71586 62.6819 5.50182C65.2719 6.55445 65.9335 8.99656 64.3007 11.7334C63.2872 13.4316 62.2596 15.1299 61.232 16.8281C59.6555 14.4281 58.0649 12.0281 56.4883 9.62814C56.8261 9.06674 57.164 8.50533 57.5018 7.94393ZM43.6789 82.1194C42.8765 82.4001 42.0601 82.6387 41.1873 82.8211L38.9211 86.5825L38.3721 87.4808L33.1075 96.2246L4.20882 78.9334L9.09331 70.8211L9.76897 69.6983L11.5144 66.7931C11.2048 66.1194 10.9232 65.4316 10.698 64.7299C10.4446 63.958 10.2194 63.186 10.0505 62.386C9.71267 60.8281 9.52968 59.2141 9.5156 57.5439C9.41707 48.0983 9.69859 38.6527 9.92381 29.2071C9.99419 26.6246 11.6411 24.9404 13.654 24.8281C15.4417 24.7299 16.8916 25.6702 17.5954 27.4106C17.0746 27.6773 16.5819 28.0562 15.9766 28.7299C13.0347 32.0281 12.725 36.9123 15.0758 40.6457C21.945 51.5229 28.9409 62.3439 36.0776 73.0527C37.4712 75.1439 39.0196 77.1229 40.7791 78.9053C41.8912 80.0281 43.0032 81.0387 44.1575 81.9369C43.9885 81.9931 43.8337 82.0773 43.6648 82.1334L43.6789 82.1194ZM58.9939 87.565L58.4168 86.6808L56.0097 83.0036C55.1511 82.8492 54.3065 82.6527 53.5041 82.4001C52.5188 82.0913 51.5616 81.7264 50.6607 81.2913C46.5645 79.3264 43.2706 76.0983 40.5258 72.1124C36.7815 66.7229 33.2905 61.165 29.687 55.6773C25.9004 49.9229 22.0998 44.1825 18.3696 38.386C17.7362 37.3895 16.6664 35.9439 16.8916 34.2176C17.0464 32.9685 17.708 32.2106 18.6652 31.5509C19.5239 30.9615 21.3397 31.0878 22.3954 31.6071C23.5356 32.1685 24.3943 33.4597 25.1544 34.5685C26.928 37.2071 28.6594 39.8738 30.4049 42.5264C31.2495 43.8176 32.1081 45.1088 32.9808 46.386C33.9099 47.7474 35.6694 51.5229 37.7809 50.0492C39.7234 48.7018 37.1756 45.6422 36.3592 44.4211C35.5005 43.1299 34.6559 41.8387 33.8254 40.5334C29.9404 34.4702 25.9849 28.4492 22.2547 22.2878C20.5655 19.4948 21.1145 17.6983 23.3386 16.4913C25.4359 15.3545 27.1673 16.0141 28.9128 18.6667C33.4594 25.572 37.992 32.4773 42.5246 39.3966C43.158 40.365 43.5381 41.165 44.7346 41.572C45.6214 41.8667 46.4941 41.7124 46.832 40.8001C47.395 39.2843 46.9446 38.4702 46.1422 37.2492C40.8073 29.1229 35.4583 20.9966 30.1374 12.8562C28.392 10.1895 28.955 7.7334 31.5028 6.56849C33.4031 5.71235 35.2049 6.42814 36.7815 8.80007C42.229 17.0527 47.6484 25.3194 53.0537 33.586C53.9405 34.9334 54.9962 36.0702 56.5728 34.9755C58.0789 33.9229 57.2203 32.5755 56.432 31.3685C52.2373 25.0106 48.0566 18.6387 43.89 12.2667C43.341 11.4246 42.778 10.5264 42.4824 9.572C41.8208 7.41059 43.2988 5.17902 45.5369 4.78603C47.8173 4.37902 48.9293 5.74042 49.985 7.35445C57.0795 18.2036 64.174 29.0527 71.367 39.8316C72.0286 40.8281 73.4221 41.9931 74.4497 41.965C76.3641 41.9088 76.1529 39.9439 76.2656 38.5404C76.5612 35.0738 76.7019 31.6071 77.0679 28.1545C77.3494 25.4878 79.0104 23.9439 81.2486 23.972C83.2615 24.0001 84.9788 25.6281 85.1477 28.1966C85.753 37.6281 86.4005 47.0457 86.668 56.4913C86.7102 58.1615 86.5976 59.7755 86.3161 61.3474C86.1753 62.1474 85.9923 62.9474 85.753 63.7194C85.5419 64.4352 85.3026 65.1229 85.007 65.8106L86.865 68.6457L87.5829 69.7404L92.7771 77.6562L64.5681 96.0703L58.9657 87.5369L58.9939 87.565Z" fill="#67686B"/>
<path d="M66.8063 44.2106C63.7236 44.2106 60.8801 45.8948 59.2473 48.6036C57.6144 45.8948 54.771 44.2106 51.6883 44.2106C47.944 44.2106 44.5657 46.7229 43.2707 50.4702C42.9047 51.5229 42.7217 52.6036 42.7217 53.6983C42.7217 54.793 42.8906 55.8176 43.2144 56.8141C43.2425 56.9264 43.2847 57.0246 43.341 57.1088L44.7346 56.4632L43.3551 57.1229L44.7346 56.4632L43.3551 57.1229C43.3551 57.1229 43.3833 57.193 43.4114 57.2632C43.8056 58.2597 44.2982 59.1299 44.8754 59.8597C45.1569 60.2106 45.4806 60.5614 45.8326 60.8702L59.2614 75.0457L73.1547 60.379C74.0697 59.3965 74.7876 58.2036 75.238 56.9123C75.5899 55.8878 75.7588 54.8071 75.7588 53.7123C75.7588 48.4913 71.7471 44.2386 66.8063 44.2386V44.2106ZM72.3383 55.9158C72.0427 56.8 71.55 57.6141 70.8884 58.3158L59.2614 70.5965L48.0285 58.7369L47.944 58.6527C47.7047 58.4281 47.4654 58.1895 47.2683 57.9369C46.8742 57.4597 46.5364 56.8562 46.2689 56.1685C46.2267 56.0422 46.1704 55.9299 46.1141 55.8036C45.8889 55.1158 45.7762 54.4141 45.7762 53.6843C45.7762 52.9544 45.9029 52.1825 46.1563 51.4527C47.015 48.9404 49.2249 47.2702 51.6742 47.2702C53.9546 47.2702 56.052 48.7299 57.0232 51.0036C57.4033 51.8878 58.262 52.4632 59.2332 52.4632C60.2045 52.4632 61.0631 51.8878 61.4432 51.0036C62.4145 48.7439 64.5118 47.2702 66.7922 47.2702C70.0438 47.2702 72.6902 50.1474 72.6902 53.6983C72.6902 54.4562 72.5635 55.2141 72.3242 55.9158H72.3383Z" fill="#67686B"/>
</g>
<defs>
<clipPath id="clip0_643_426">
<rect width="97" height="100" fill="white"/>
</clipPath>
</defs>
</svg>
