<svg width="109" height="141" viewBox="0 0 109 141" fill="none" xmlns="http://www.w3.org/2000/svg">
<path d="M17.3782 141H91.6055C101.197 141 108.984 133.159 108.984 123.536V75.7685C108.984 66.9142 102.4 59.5954 93.8814 58.4682V39.5832C93.8814 17.7577 76.2268 0 54.4919 0C32.7569 0 15.1023 17.7577 15.1023 39.5832V58.4682C6.60015 59.5954 0 66.9142 0 75.7685V123.536C0 133.175 7.80313 141 17.3782 141ZM6.48635 75.7685C6.48635 69.7404 11.3796 64.8231 17.3782 64.8231H91.6055C97.6042 64.8231 102.497 69.7404 102.497 75.7685V123.536C102.497 129.564 97.6042 134.482 91.6055 134.482H17.3782C11.3796 134.482 6.48635 129.564 6.48635 123.536V75.7685ZM54.4919 6.51825C72.6341 6.51825 87.3951 21.3518 87.3951 39.5832V58.2885H82.2092V39.5832C82.2092 24.227 69.773 11.7459 54.5081 11.7459C39.2432 11.7459 26.807 24.227 26.807 39.5832V58.2885H21.6212V39.5832C21.6049 21.3518 36.3496 6.51825 54.4919 6.51825ZM75.7066 58.2885H33.2771V39.5832C33.2771 27.8373 42.7872 18.2642 54.4919 18.2642C66.1966 18.2642 75.7066 27.821 75.7066 39.5832V58.2885Z" fill="#E13D6F"/>
<path d="M48.0219 117.361H60.9784C62.409 117.361 63.5794 116.201 63.5794 114.747V84.5576C63.5794 83.1199 62.4252 81.9437 60.9784 81.9437H48.0219C46.5914 81.9437 45.4209 83.1036 45.4209 84.5576V114.747C45.4209 116.185 46.5914 117.361 48.0219 117.361ZM50.623 87.1714H58.3936V112.15H50.623V87.1714Z" fill="#E13D6F"/>
</svg>
