<svg width="105" height="104" viewBox="0 0 105 104" fill="none" xmlns="http://www.w3.org/2000/svg">
<path d="M52.2712 103.578C80.8734 103.578 104.06 80.391 104.06 51.7888C104.06 23.1866 80.8734 0 52.2712 0C23.6691 0 0.482422 23.1866 0.482422 51.7888C0.482422 80.391 23.6691 103.578 52.2712 103.578Z" fill="#DA0000"/>
<path d="M85.3545 35.1708C84.5642 32.2015 82.2241 29.8614 79.2472 29.0635C73.8612 27.6211 52.271 27.6211 52.271 27.6211C52.271 27.6211 30.6808 27.6211 25.2948 29.0635C22.3256 29.8614 19.9855 32.1939 19.1875 35.1708C17.7451 40.5568 17.7451 51.7892 17.7451 51.7892C17.7451 51.7892 17.7451 63.0216 19.1875 68.4076C19.9778 71.3769 22.3179 73.717 25.2948 74.5149C30.6808 75.9573 52.271 75.9573 52.271 75.9573C52.271 75.9573 73.8612 75.9573 79.2472 74.5149C82.2164 73.717 84.5565 71.3845 85.3545 68.4076C86.7969 63.0216 86.7969 51.7892 86.7969 51.7892C86.7969 51.7892 86.7969 40.5568 85.3545 35.1708ZM45.3658 62.147V41.4314L63.3039 51.7892L45.3658 62.147Z" fill="white"/>
</svg>
